include "hUGE.inc"

SECTION "GameMusic Song Data", ROMX

GameMusic::
db 4
dw order_cnt
dw order1, order2, order3, order4
dw duty_instruments, wave_instruments, noise_instruments
dw routines
dw waves

order_cnt: db 80
order1: dw P0,P4,P8,P5,P0,P4,P9,P11,P13,P16,P19,P41,P13,P16,P19,P22,P0,P4,P8,P5,P0,P4,P9,P11,P42,P43,P45,P44,P42,P43,P45,P44,P53,P54,P61,P62,P53,P54,P55,P56
order2: dw P1,P1,P1,P1,P1,P1,P1,P1,P14,P17,P20,P23,P14,P17,P20,P23,P27,P29,P30,P31,P29,P30,P31,P36,P14,P17,P20,P40,P46,P47,P49,P50,P29,P30,P31,P63,P29,P30,P31,P1
order3: dw P6,P2,P10,P7,P6,P2,P10,P12,P15,P18,P21,P24,P15,P18,P21,P26,P6,P2,P10,P7,P6,P2,P10,P12,P15,P18,P21,P24,P15,P18,P21,P26,P6,P2,P10,P7,P6,P2,P10,P58
order4: dw P3,P3,P3,P3,P3,P3,P3,P3,P3,P3,P3,P3,P3,P3,P3,P25,P28,P28,P28,P32,P33,P34,P35,P38,P28,P28,P28,P28,P48,P48,P48,P51,P52,P34,P35,P35,P35,P34,P35,P59

P0:
 dn A_4,1,$C0C
 dn C_5,1,$C0C
 dn E_5,1,$C0B
 dn F_5,2,$C0B
 dn A_4,2,$C0A
 dn C_5,2,$C0A
 dn E_5,3,$C09
 dn F_5,3,$C09
 dn A_4,3,$C08
 dn C_5,4,$C08
 dn E_5,4,$C07
 dn F_5,4,$C07
 dn A_4,4,$C06
 dn C_5,1,$C06
 dn E_5,1,$C05
 dn F_5,1,$C05
 dn A_4,1,$C04
 dn C_5,1,$C04
 dn E_5,1,$C03
 dn F_5,2,$C03
 dn A_4,2,$C02
 dn C_5,2,$C02
 dn E_5,3,$C01
 dn F_5,3,$C01
 dn A_4,1,$C0C
 dn C_5,1,$C0C
 dn E_5,1,$C0B
 dn F_5,2,$C0B
 dn A_4,2,$C0A
 dn C_5,2,$C0A
 dn E_5,3,$C09
 dn F_5,3,$C09
 dn A_4,1,$C0C
 dn B_4,1,$C0C
 dn D_5,1,$C0B
 dn F_5,1,$C0B
 dn A_4,2,$C0A
 dn B_4,2,$C0A
 dn D_5,3,$C09
 dn F_5,3,$C09
 dn A_4,3,$C08
 dn B_4,4,$C08
 dn D_5,4,$C07
 dn F_5,4,$C07
 dn A_4,4,$C06
 dn B_4,1,$C06
 dn D_5,1,$C05
 dn F_5,1,$C05
 dn A_4,1,$C04
 dn B_4,1,$C04
 dn D_5,1,$C03
 dn F_5,2,$C03
 dn A_4,2,$C02
 dn B_4,2,$C02
 dn D_5,3,$C01
 dn F_5,3,$C01
 dn A_4,1,$C0C
 dn B_4,1,$C0C
 dn D_5,1,$C0B
 dn F_5,1,$C0B
 dn A_4,2,$C0A
 dn B_4,2,$C0A
 dn D_5,3,$C09
 dn F_5,3,$C09

P1:
 dn ___,0,$000
 dn ___,0,$000
 dn ___,0,$000
 dn ___,0,$000
 dn ___,0,$000
 dn ___,0,$000
 dn ___,0,$000
 dn ___,0,$000
 dn ___,0,$000
 dn ___,0,$000
 dn ___,0,$000
 dn ___,0,$000
 dn ___,0,$000
 dn ___,0,$000
 dn ___,0,$000
 dn ___,0,$000
 dn ___,0,$000
 dn ___,0,$000
 dn ___,0,$000
 dn ___,0,$000
 dn ___,0,$000
 dn ___,0,$000
 dn ___,0,$000
 dn ___,0,$000
 dn ___,0,$000
 dn ___,0,$000
 dn ___,0,$000
 dn ___,0,$000
 dn ___,0,$000
 dn ___,0,$000
 dn ___,0,$000
 dn ___,0,$000
 dn ___,0,$000
 dn ___,0,$000
 dn ___,0,$000
 dn ___,0,$000
 dn ___,0,$000
 dn ___,0,$000
 dn ___,0,$000
 dn ___,0,$000
 dn ___,0,$000
 dn ___,0,$000
 dn ___,0,$000
 dn ___,0,$000
 dn ___,0,$000
 dn ___,0,$000
 dn ___,0,$000
 dn ___,0,$000
 dn ___,0,$000
 dn ___,0,$000
 dn ___,0,$000
 dn ___,0,$000
 dn ___,0,$000
 dn ___,0,$000
 dn ___,0,$000
 dn ___,0,$000
 dn ___,0,$000
 dn ___,0,$000
 dn ___,0,$000
 dn ___,0,$000
 dn ___,0,$000
 dn ___,0,$000
 dn ___,0,$000
 dn ___,0,$000

P2:
 dn F#5,9,$2FF
 dn ___,0,$2FF
 dn C_4,8,$000
 dn ___,0,$E00
 dn C_4,7,$000
 dn ___,0,$E00
 dn C_4,7,$000
 dn ___,0,$E00
 dn F#5,9,$2FF
 dn ___,0,$2FF
 dn C_4,6,$000
 dn ___,0,$E00
 dn C_4,5,$000
 dn ___,0,$E00
 dn C_4,5,$000
 dn ___,0,$E00
 dn F#5,9,$2FF
 dn ___,0,$2FF
 dn C_4,4,$000
 dn ___,0,$E00
 dn C_4,4,$000
 dn ___,0,$E00
 dn C_4,3,$000
 dn ___,0,$E00
 dn F#5,9,$2FF
 dn ___,0,$2FF
 dn C_4,2,$000
 dn ___,0,$E00
 dn C_6,1,$000
 dn ___,0,$000
 dn C_5,1,$000
 dn ___,0,$E00
 dn F#5,9,$2FF
 dn ___,0,$2FF
 dn F_4,8,$000
 dn ___,0,$E00
 dn F_4,7,$000
 dn ___,0,$E00
 dn F_4,7,$000
 dn ___,0,$E00
 dn F#5,9,$2FF
 dn ___,0,$2FF
 dn F_4,6,$000
 dn ___,0,$E00
 dn F_4,5,$000
 dn ___,0,$E00
 dn F_4,5,$000
 dn ___,0,$E00
 dn F#5,9,$2FF
 dn ___,0,$2FF
 dn F#4,4,$000
 dn ___,0,$E00
 dn F#4,4,$000
 dn ___,0,$E00
 dn F#4,3,$000
 dn ___,0,$E00
 dn F#5,9,$2FF
 dn ___,0,$2FF
 dn F#4,2,$000
 dn ___,0,$E00
 dn F#6,1,$000
 dn ___,0,$000
 dn F#5,1,$000
 dn ___,0,$E00

P3:
 dn F#7,1,$F04
 dn ___,0,$F03
 dn ___,0,$F04
 dn ___,0,$F03
 dn F#7,2,$F04
 dn ___,0,$F03
 dn ___,0,$F04
 dn ___,0,$F03
 dn F#7,1,$F04
 dn ___,0,$F03
 dn ___,0,$F04
 dn ___,0,$F03
 dn F#7,2,$F04
 dn ___,0,$F03
 dn ___,0,$F04
 dn ___,0,$F03
 dn F#7,1,$F04
 dn ___,0,$F03
 dn ___,0,$F04
 dn ___,0,$F03
 dn F#7,2,$F04
 dn ___,0,$F03
 dn ___,0,$F04
 dn ___,0,$F03
 dn F#7,1,$F04
 dn ___,0,$F03
 dn F#7,1,$F04
 dn ___,0,$F03
 dn F#7,2,$F04
 dn ___,0,$F03
 dn ___,0,$F04
 dn ___,0,$F03
 dn F#7,1,$F04
 dn ___,0,$F03
 dn ___,0,$F04
 dn ___,0,$F03
 dn F#7,2,$F04
 dn ___,0,$F03
 dn ___,0,$F04
 dn ___,0,$F03
 dn F#7,1,$F04
 dn ___,0,$F03
 dn ___,0,$F04
 dn ___,0,$F03
 dn F#7,2,$F04
 dn ___,0,$F03
 dn ___,0,$F04
 dn ___,0,$F03
 dn F#7,1,$F04
 dn ___,0,$F03
 dn ___,0,$F04
 dn ___,0,$F03
 dn F#7,2,$F04
 dn ___,0,$F03
 dn ___,0,$F04
 dn ___,0,$F03
 dn F#7,1,$F04
 dn ___,0,$F03
 dn F#7,1,$F04
 dn ___,0,$F03
 dn F#7,2,$F04
 dn ___,0,$F03
 dn ___,0,$F04
 dn ___,0,$F03

P4:
 dn G_4,1,$C0C
 dn A_4,1,$C0C
 dn C_5,1,$C0B
 dn E_5,2,$C0B
 dn G_4,2,$C0A
 dn A_4,2,$C0A
 dn C_5,3,$C09
 dn E_5,3,$C09
 dn G_4,3,$C08
 dn A_4,4,$C08
 dn C_5,4,$C07
 dn E_5,4,$C07
 dn G_4,4,$C06
 dn A_4,1,$C06
 dn C_5,1,$C05
 dn E_5,1,$C05
 dn G_4,1,$C04
 dn A_4,1,$C04
 dn C_5,1,$C03
 dn E_5,2,$C03
 dn G_4,2,$C02
 dn A_4,2,$C02
 dn C_5,3,$C01
 dn E_5,3,$C01
 dn G_4,1,$C0C
 dn A_4,1,$C0C
 dn C_5,1,$C0B
 dn E_5,2,$C0B
 dn G_4,2,$C0A
 dn A_4,2,$C0A
 dn C_5,3,$C09
 dn E_5,3,$C09
 dn F_4,1,$C0C
 dn A_4,1,$C0C
 dn C_5,1,$C0B
 dn E_5,1,$C0B
 dn F_4,2,$C0A
 dn A_4,2,$C0A
 dn C_5,3,$C09
 dn E_5,3,$C09
 dn F_4,3,$C08
 dn A_4,4,$C08
 dn C_5,4,$C07
 dn E_5,4,$C07
 dn F_4,4,$C06
 dn A_4,1,$C06
 dn C_5,1,$C05
 dn E_5,1,$C05
 dn F#4,1,$C0C
 dn A_4,1,$C0C
 dn C_5,1,$C0B
 dn E_5,1,$C0B
 dn F#4,2,$C0A
 dn A_4,2,$C0A
 dn C_5,3,$C09
 dn E_5,3,$C09
 dn F#4,1,$C0C
 dn A_4,1,$C0C
 dn C_5,1,$C0B
 dn D#5,1,$C0B
 dn F#4,2,$C0A
 dn A_4,2,$C0A
 dn C_5,3,$C09
 dn D#5,3,$C09

P5:
 dn G_4,1,$C0C
 dn A#4,1,$C0C
 dn C#5,1,$C0B
 dn E_5,2,$C0B
 dn G_4,2,$C0A
 dn A#4,2,$C0A
 dn C#5,3,$C09
 dn E_5,3,$C09
 dn G_4,3,$C08
 dn A#4,4,$C08
 dn C#5,4,$C07
 dn E_5,4,$C07
 dn G_4,4,$C06
 dn A#4,1,$C06
 dn C#5,1,$C05
 dn E_5,1,$C05
 dn G_4,1,$C04
 dn A#4,1,$C04
 dn C#5,1,$C03
 dn E_5,2,$C03
 dn G_4,2,$C02
 dn A#4,2,$C02
 dn C#5,3,$C01
 dn E_5,3,$C01
 dn G_4,1,$C0C
 dn A#4,1,$C0C
 dn C#5,1,$C0B
 dn E_5,2,$C0B
 dn G_4,2,$C0A
 dn A#4,2,$C0A
 dn C#5,3,$C09
 dn E_5,3,$C09
 dn G_4,1,$C0C
 dn A_4,1,$C0C
 dn C#5,1,$C0B
 dn E_5,1,$C0B
 dn G_4,2,$C0A
 dn A_4,2,$C0A
 dn C#5,3,$C09
 dn E_5,3,$C09
 dn G_4,3,$C08
 dn A_4,4,$C08
 dn C#5,4,$C07
 dn E_5,4,$C07
 dn G_4,4,$C06
 dn A_4,1,$C06
 dn C#5,1,$C05
 dn E_5,1,$C05
 dn G_4,1,$C04
 dn A_4,1,$C04
 dn C#5,1,$C03
 dn E_5,2,$C03
 dn G_4,2,$C02
 dn A_4,2,$C02
 dn C#5,3,$C01
 dn E_5,3,$C01
 dn ___,0,$E00
 dn ___,0,$000
 dn ___,0,$000
 dn ___,0,$000
 dn ___,0,$000
 dn ___,0,$000
 dn ___,0,$000
 dn ___,0,$000

P6:
 dn F#5,9,$2FF
 dn ___,0,$2FF
 dn D_4,8,$000
 dn ___,0,$E00
 dn D_4,7,$000
 dn ___,0,$E00
 dn D_4,7,$000
 dn ___,0,$E00
 dn F#5,9,$2FF
 dn ___,0,$2FF
 dn D_4,6,$000
 dn ___,0,$E00
 dn D_4,5,$000
 dn ___,0,$E00
 dn D_4,5,$000
 dn ___,0,$E00
 dn F#5,9,$2FF
 dn ___,0,$2FF
 dn D_4,4,$000
 dn ___,0,$E00
 dn D_4,4,$000
 dn ___,0,$E00
 dn D_4,3,$000
 dn ___,0,$E00
 dn F#5,9,$2FF
 dn ___,0,$2FF
 dn D_4,2,$000
 dn ___,0,$E00
 dn D_6,1,$000
 dn ___,0,$000
 dn D_5,1,$000
 dn ___,0,$E00
 dn F#5,9,$2FF
 dn ___,0,$2FF
 dn D_4,8,$000
 dn ___,0,$E00
 dn D_4,7,$000
 dn ___,0,$E00
 dn D_4,7,$000
 dn ___,0,$E00
 dn F#5,9,$2FF
 dn ___,0,$2FF
 dn D_4,6,$000
 dn ___,0,$E00
 dn D_4,5,$000
 dn ___,0,$E00
 dn D_4,5,$000
 dn ___,0,$E00
 dn F#5,9,$2FF
 dn ___,0,$2FF
 dn D_4,4,$000
 dn ___,0,$E00
 dn D_4,4,$000
 dn ___,0,$E00
 dn D_4,3,$000
 dn ___,0,$E00
 dn F#5,9,$2FF
 dn ___,0,$2FF
 dn D_4,2,$000
 dn ___,0,$E00
 dn D_6,1,$000
 dn ___,0,$000
 dn D_5,1,$000
 dn ___,0,$E00

P7:
 dn F#5,9,$2FF
 dn ___,0,$2FF
 dn A_4,8,$000
 dn ___,0,$E00
 dn A_4,7,$000
 dn ___,0,$E00
 dn A_4,7,$000
 dn ___,0,$E00
 dn F#5,9,$2FF
 dn ___,0,$2FF
 dn A_4,6,$000
 dn ___,0,$E00
 dn A_4,5,$000
 dn ___,0,$E00
 dn A_4,5,$000
 dn ___,0,$E00
 dn F#5,9,$2FF
 dn ___,0,$2FF
 dn A_4,4,$000
 dn ___,0,$E00
 dn A_4,4,$000
 dn ___,0,$E00
 dn A_4,3,$000
 dn ___,0,$E00
 dn F#5,9,$2FF
 dn ___,0,$2FF
 dn A_4,2,$000
 dn ___,0,$E00
 dn A_6,1,$000
 dn ___,0,$000
 dn A_5,1,$000
 dn ___,0,$E00
 dn F#5,9,$2FF
 dn ___,0,$2FF
 dn A_3,8,$000
 dn ___,0,$E00
 dn A_4,7,$000
 dn ___,0,$E00
 dn A_3,7,$000
 dn ___,0,$E00
 dn F#5,9,$2FF
 dn ___,0,$2FF
 dn A_3,6,$000
 dn ___,0,$E00
 dn A_4,5,$000
 dn ___,0,$E00
 dn A_3,5,$000
 dn ___,0,$E00
 dn F#5,9,$2FF
 dn ___,0,$2FF
 dn A_3,4,$000
 dn ___,0,$E00
 dn A_4,4,$000
 dn ___,0,$E00
 dn A_3,3,$000
 dn ___,0,$E00
 dn F#5,9,$2FF
 dn ___,0,$2FF
 dn A_3,2,$000
 dn ___,0,$E00
 dn A_5,1,$000
 dn ___,0,$000
 dn A_4,1,$000
 dn ___,0,$E00

P8:
 dn F_4,1,$C0C
 dn G_4,1,$C0C
 dn A#4,1,$C0B
 dn D_5,2,$C0B
 dn F_4,2,$C0A
 dn G_4,2,$C0A
 dn A#4,3,$C09
 dn D_5,3,$C09
 dn F_4,3,$C08
 dn G_4,4,$C08
 dn A#4,4,$C07
 dn D_5,4,$C07
 dn F_4,4,$C06
 dn G_4,1,$C06
 dn A#4,1,$C05
 dn D_5,1,$C05
 dn F_4,1,$C04
 dn G_4,1,$C04
 dn A#4,1,$C03
 dn D_5,2,$C03
 dn F_4,2,$C02
 dn G_4,2,$C02
 dn A#4,3,$C01
 dn D_5,3,$C01
 dn F_4,1,$C0C
 dn G_4,1,$C0C
 dn A#4,1,$C0B
 dn D_5,2,$C0B
 dn F_4,2,$C0A
 dn G_4,2,$C0A
 dn A#4,3,$C09
 dn D_5,3,$C09
 dn F#4,1,$C0C
 dn A#4,1,$C0C
 dn C#5,1,$C0B
 dn F_5,1,$C0B
 dn F#4,2,$C0A
 dn A#4,2,$C0A
 dn C#5,3,$C09
 dn F_5,3,$C09
 dn F#4,3,$C08
 dn A#4,4,$C08
 dn C#5,4,$C07
 dn F_5,4,$C07
 dn F#4,4,$C06
 dn A#4,1,$C06
 dn C#5,1,$C05
 dn F_5,1,$C05
 dn F#4,1,$C0C
 dn A#4,1,$C0C
 dn C#5,1,$C0B
 dn F_5,1,$C0B
 dn F#4,2,$C0A
 dn A#4,2,$C0A
 dn C#5,3,$C09
 dn F_5,3,$C09
 dn F#4,1,$C0C
 dn A#4,1,$C0C
 dn C#5,1,$C0B
 dn G_5,1,$C0B
 dn F#4,2,$C0A
 dn A#4,2,$C0A
 dn C#5,3,$C09
 dn G_5,3,$C09

P9:
 dn F_4,1,$C0C
 dn G_4,1,$C0C
 dn A#4,1,$C0B
 dn D_5,2,$C0B
 dn F_4,2,$C0A
 dn G_4,2,$C0A
 dn A#4,3,$C09
 dn D_5,3,$C09
 dn F_4,3,$C08
 dn G_4,4,$C08
 dn A#4,4,$C07
 dn D_5,4,$C07
 dn F_4,4,$C06
 dn G_4,1,$C06
 dn A#4,1,$C05
 dn D_5,1,$C05
 dn F_4,1,$C04
 dn G_4,1,$C04
 dn A#4,1,$C03
 dn D_5,2,$C03
 dn F_4,2,$C02
 dn G_4,2,$C02
 dn A#4,3,$C01
 dn D_5,3,$C01
 dn F_4,1,$C0C
 dn G_4,1,$C0C
 dn A#4,1,$C0B
 dn D_5,2,$C0B
 dn F_4,2,$C0A
 dn G_4,2,$C0A
 dn A#4,3,$C09
 dn D_5,3,$C09
 dn F#4,1,$C0C
 dn A#4,1,$C0C
 dn C#5,1,$C0B
 dn F_5,1,$C0B
 dn F#4,2,$C0A
 dn A#4,2,$C0A
 dn C#5,3,$C09
 dn F_5,3,$C09
 dn F#4,3,$C08
 dn A#4,4,$C08
 dn C#5,4,$C07
 dn F_5,4,$C07
 dn F#4,4,$C06
 dn A#4,1,$C06
 dn C#5,1,$C05
 dn F_5,1,$C05
 dn F#4,1,$C0C
 dn A#4,1,$C0C
 dn C#5,1,$C0B
 dn F_5,1,$C0B
 dn F#4,2,$C0A
 dn A#4,2,$C0A
 dn C#5,3,$C09
 dn F_5,3,$C09
 dn A#4,1,$C0C
 dn C#5,1,$C0C
 dn E_5,1,$C0B
 dn A_5,1,$C0B
 dn A#4,2,$C0A
 dn C#5,2,$C0A
 dn E_5,3,$C09
 dn A_5,3,$C09

P10:
 dn F#5,9,$2FF
 dn ___,0,$2FF
 dn G_4,8,$000
 dn ___,0,$E00
 dn G_4,7,$000
 dn ___,0,$E00
 dn G_4,7,$000
 dn ___,0,$E00
 dn F#5,9,$2FF
 dn ___,0,$2FF
 dn G_4,6,$000
 dn ___,0,$E00
 dn G_4,5,$000
 dn ___,0,$E00
 dn G_4,5,$000
 dn ___,0,$E00
 dn F#5,9,$2FF
 dn ___,0,$2FF
 dn G_4,4,$000
 dn ___,0,$E00
 dn G_4,4,$000
 dn ___,0,$E00
 dn G_4,3,$000
 dn ___,0,$E00
 dn F#5,9,$2FF
 dn ___,0,$2FF
 dn G_4,2,$000
 dn ___,0,$E00
 dn G_6,1,$000
 dn ___,0,$000
 dn G_5,1,$000
 dn ___,0,$E00
 dn F#5,9,$2FF
 dn ___,0,$2FF
 dn G#4,8,$000
 dn ___,0,$E00
 dn G#4,7,$000
 dn ___,0,$E00
 dn G#4,7,$000
 dn ___,0,$E00
 dn F#5,9,$2FF
 dn ___,0,$2FF
 dn G#4,6,$000
 dn ___,0,$E00
 dn G#4,5,$000
 dn ___,0,$E00
 dn G#4,5,$000
 dn ___,0,$E00
 dn F#5,9,$2FF
 dn ___,0,$2FF
 dn G#4,4,$000
 dn ___,0,$E00
 dn G#4,4,$000
 dn ___,0,$E00
 dn G#4,3,$000
 dn ___,0,$E00
 dn F#5,9,$2FF
 dn ___,0,$2FF
 dn G#4,2,$000
 dn ___,0,$E00
 dn G#6,1,$000
 dn ___,0,$000
 dn G#5,1,$000
 dn ___,0,$E00

P11:
 dn A_4,1,$C0C
 dn C#5,1,$C0C
 dn E_5,1,$C0B
 dn G_5,2,$C0B
 dn A_4,2,$C0A
 dn C#5,2,$C0A
 dn E_5,3,$C09
 dn G_5,3,$C09
 dn A_4,3,$C08
 dn C#5,4,$C08
 dn E_5,4,$C07
 dn G_5,4,$C07
 dn A_4,4,$C06
 dn C#5,1,$C06
 dn E_5,1,$C05
 dn G_5,1,$C05
 dn A_4,1,$C04
 dn C#5,1,$C04
 dn E_5,1,$C03
 dn G_5,2,$C03
 dn A_4,2,$C02
 dn C#5,2,$C02
 dn E_5,3,$C01
 dn G_5,3,$C01
 dn A_4,1,$C0C
 dn C#5,1,$C0C
 dn E_5,1,$C0B
 dn G_5,2,$C0B
 dn A_4,2,$C0A
 dn C#5,2,$C0A
 dn E_5,3,$C09
 dn G_5,3,$C09
 dn A#4,1,$C0C
 dn C_5,1,$C0C
 dn E_5,1,$C0B
 dn G_5,1,$C0B
 dn A#4,2,$C0A
 dn C_5,2,$C0A
 dn E_5,3,$C09
 dn G_5,3,$C09
 dn A#4,3,$C08
 dn C_5,4,$C08
 dn E_5,4,$C07
 dn G_5,4,$C07
 dn A#4,4,$C06
 dn C_5,1,$C06
 dn E_5,1,$C05
 dn G_5,1,$C05
 dn A#4,1,$C04
 dn C_5,1,$C04
 dn E_5,1,$C03
 dn G_5,2,$C03
 dn A#4,2,$C02
 dn C_5,2,$C02
 dn E_5,3,$C01
 dn G_5,3,$C01
 dn ___,0,$E00
 dn ___,0,$000
 dn ___,0,$000
 dn ___,0,$000
 dn ___,0,$000
 dn ___,0,$000
 dn ___,0,$000
 dn ___,0,$000

P12:
 dn F#5,9,$2FF
 dn ___,0,$2FF
 dn A_4,8,$000
 dn ___,0,$E00
 dn A_4,7,$000
 dn ___,0,$E00
 dn A_4,7,$000
 dn ___,0,$E00
 dn F#5,9,$2FF
 dn ___,0,$2FF
 dn A_4,6,$000
 dn ___,0,$E00
 dn A_4,5,$000
 dn ___,0,$E00
 dn A_4,5,$000
 dn ___,0,$E00
 dn F#5,9,$2FF
 dn ___,0,$2FF
 dn A_4,4,$000
 dn ___,0,$E00
 dn A_4,4,$000
 dn ___,0,$E00
 dn A_4,3,$000
 dn ___,0,$E00
 dn F#5,9,$2FF
 dn ___,0,$2FF
 dn A_4,2,$000
 dn ___,0,$E00
 dn A_6,1,$000
 dn ___,0,$000
 dn A_5,1,$000
 dn ___,0,$E00
 dn F#5,9,$2FF
 dn ___,0,$2FF
 dn C_4,8,$000
 dn ___,0,$E00
 dn C_5,7,$000
 dn ___,0,$E00
 dn C_4,7,$000
 dn ___,0,$E00
 dn F#5,9,$2FF
 dn ___,0,$2FF
 dn C_4,6,$000
 dn ___,0,$E00
 dn C_5,5,$000
 dn ___,0,$E00
 dn C_4,5,$000
 dn ___,0,$E00
 dn F#5,9,$2FF
 dn ___,0,$2FF
 dn C_4,4,$000
 dn ___,0,$E00
 dn C_5,4,$000
 dn ___,0,$E00
 dn C_4,3,$000
 dn ___,0,$E00
 dn F#5,9,$2FF
 dn ___,0,$2FF
 dn F#5,9,$2FF
 dn ___,0,$2FF
 dn F#5,9,$2FF
 dn ___,0,$2FF
 dn F#5,9,$2FF
 dn ___,0,$2FF

P13:
 dn F_4,1,$C0C
 dn A_4,1,$C0C
 dn C_5,1,$C0B
 dn E_5,2,$C0B
 dn F_4,2,$C0A
 dn A_4,2,$C0A
 dn C_5,3,$C09
 dn E_5,3,$C09
 dn F_4,3,$C08
 dn A_4,4,$C08
 dn C_5,4,$C07
 dn E_5,4,$C07
 dn F_4,4,$C06
 dn A_4,1,$C06
 dn C_5,1,$C05
 dn E_5,1,$C05
 dn F_4,1,$C0C
 dn A_4,1,$C0C
 dn C_5,1,$C0B
 dn D#5,2,$C0B
 dn F_4,2,$C0A
 dn A_4,2,$C0A
 dn C_5,3,$C09
 dn D#5,3,$C09
 dn F_4,3,$C08
 dn A_4,4,$C08
 dn C_5,4,$C07
 dn D#5,4,$C07
 dn F_4,4,$C06
 dn A_4,1,$C06
 dn C_5,1,$C05
 dn D#5,1,$C05
 dn F_4,1,$C0C
 dn G_4,1,$C0C
 dn A#4,1,$C0B
 dn D_5,2,$C0B
 dn F_4,2,$C0A
 dn G_4,2,$C0A
 dn A#4,3,$C09
 dn D_5,3,$C09
 dn F_4,3,$C08
 dn G_4,4,$C08
 dn A#4,4,$C07
 dn D_5,4,$C07
 dn F_4,4,$C06
 dn G_4,1,$C06
 dn A#4,1,$C05
 dn D_5,1,$C05
 dn G_4,1,$C0C
 dn A#4,1,$C0C
 dn D_5,1,$C0B
 dn E_5,2,$C0B
 dn G_4,2,$C0A
 dn A#4,2,$C0A
 dn D_5,3,$C09
 dn E_5,3,$C09
 dn G_4,3,$C08
 dn A#4,4,$C08
 dn D_5,4,$C07
 dn E_5,4,$C07
 dn G_4,4,$C06
 dn A#4,1,$C06
 dn D_5,1,$C05
 dn E_5,1,$C05

P14:
 dn G_5,5,$000
 dn A_5,6,$308
 dn ___,0,$308
 dn ___,0,$308
 dn ___,0,$000
 dn ___,0,$000
 dn ___,0,$000
 dn ___,0,$000
 dn G_5,5,$000
 dn ___,0,$000
 dn ___,0,$E00
 dn ___,0,$000
 dn ___,0,$000
 dn ___,0,$000
 dn ___,0,$000
 dn ___,0,$000
 dn A_5,5,$000
 dn ___,0,$000
 dn ___,0,$000
 dn ___,0,$000
 dn C_6,5,$000
 dn ___,0,$000
 dn ___,0,$E00
 dn ___,0,$000
 dn ___,0,$000
 dn ___,0,$000
 dn ___,0,$000
 dn ___,0,$000
 dn C#6,5,$000
 dn D_6,6,$308
 dn ___,0,$308
 dn ___,0,$308
 dn ___,0,$000
 dn ___,0,$000
 dn ___,0,$000
 dn ___,0,$000
 dn C_6,5,$000
 dn ___,0,$000
 dn ___,0,$E00
 dn ___,0,$000
 dn ___,0,$000
 dn ___,0,$000
 dn ___,0,$000
 dn ___,0,$000
 dn ___,0,$000
 dn ___,0,$000
 dn ___,0,$000
 dn ___,0,$000
 dn G#5,5,$000
 dn ___,0,$000
 dn G_5,6,$000
 dn ___,0,$000
 dn F_5,6,$000
 dn ___,0,$000
 dn ___,0,$E00
 dn ___,0,$000
 dn G_5,5,$000
 dn ___,0,$000
 dn ___,0,$E00
 dn ___,0,$000
 dn F_5,5,$000
 dn ___,0,$000
 dn ___,0,$000
 dn ___,0,$000

P15:
 dn F#5,9,$2FF
 dn ___,0,$2FF
 dn F_4,8,$000
 dn ___,0,$E00
 dn F_4,7,$000
 dn ___,0,$E00
 dn F_4,7,$000
 dn ___,0,$E00
 dn F#5,9,$2FF
 dn ___,0,$2FF
 dn F_4,6,$000
 dn ___,0,$E00
 dn F_4,5,$000
 dn ___,0,$E00
 dn F_4,5,$000
 dn ___,0,$E00
 dn F#5,9,$2FF
 dn ___,0,$2FF
 dn F_4,4,$000
 dn ___,0,$E00
 dn F_4,4,$000
 dn ___,0,$E00
 dn F_4,3,$000
 dn ___,0,$E00
 dn F#5,9,$2FF
 dn ___,0,$2FF
 dn F_4,2,$000
 dn ___,0,$E00
 dn F_6,1,$000
 dn ___,0,$000
 dn F_5,1,$000
 dn ___,0,$E00
 dn F#5,9,$2FF
 dn ___,0,$2FF
 dn G_4,8,$000
 dn ___,0,$E00
 dn G_4,7,$000
 dn ___,0,$E00
 dn G_4,7,$000
 dn ___,0,$E00
 dn F#5,9,$2FF
 dn ___,0,$2FF
 dn G_4,6,$000
 dn ___,0,$E00
 dn G_4,5,$000
 dn ___,0,$E00
 dn G_4,5,$000
 dn ___,0,$E00
 dn F#5,9,$2FF
 dn ___,0,$2FF
 dn C_4,4,$000
 dn ___,0,$E00
 dn C_4,4,$000
 dn ___,0,$E00
 dn C_4,3,$000
 dn ___,0,$E00
 dn F#5,9,$2FF
 dn ___,0,$2FF
 dn C_4,2,$000
 dn ___,0,$E00
 dn C_6,1,$000
 dn ___,0,$000
 dn C_5,1,$000
 dn ___,0,$E00

P16:
 dn F_4,1,$C0C
 dn A_4,1,$C0C
 dn C_5,1,$C0B
 dn E_5,2,$C0B
 dn F_4,2,$C0A
 dn A_4,2,$C0A
 dn C_5,3,$C09
 dn E_5,3,$C09
 dn F_4,3,$C08
 dn A_4,4,$C08
 dn C_5,4,$C07
 dn E_5,4,$C07
 dn F_4,4,$C06
 dn A_4,1,$C06
 dn C_5,1,$C05
 dn E_5,1,$C05
 dn F_4,1,$C0C
 dn A_4,1,$C0C
 dn C_5,1,$C0B
 dn D#5,2,$C0B
 dn F_4,2,$C0A
 dn A_4,2,$C0A
 dn C_5,3,$C09
 dn D#5,3,$C09
 dn F_4,3,$C08
 dn A_4,4,$C08
 dn C_5,4,$C07
 dn D#5,4,$C07
 dn F_4,4,$C06
 dn A_4,1,$C06
 dn C_5,1,$C05
 dn D#5,1,$C05
 dn F_4,1,$C0C
 dn G_4,1,$C0C
 dn A#4,1,$C0B
 dn D_5,2,$C0B
 dn F_4,2,$C0A
 dn G_4,2,$C0A
 dn A#4,3,$C09
 dn D_5,3,$C09
 dn F_4,3,$C08
 dn G_4,4,$C08
 dn A#4,4,$C07
 dn D_5,4,$C07
 dn F_4,4,$C06
 dn G_4,1,$C06
 dn A#4,1,$C05
 dn D_5,1,$C05
 dn D#4,1,$C0C
 dn G_4,1,$C0C
 dn A#4,1,$C0B
 dn D_5,2,$C0B
 dn D#4,2,$C0A
 dn G_4,2,$C0A
 dn A#4,3,$C09
 dn D_5,3,$C09
 dn D#4,3,$C08
 dn G_4,4,$C08
 dn A#4,4,$C07
 dn D_5,4,$C07
 dn D#4,4,$C06
 dn G_4,1,$C06
 dn A#4,1,$C05
 dn D_5,1,$C05

P17:
 dn ___,0,$000
 dn ___,0,$000
 dn ___,0,$000
 dn ___,0,$000
 dn D_5,5,$000
 dn ___,0,$000
 dn ___,0,$E00
 dn ___,0,$000
 dn ___,0,$000
 dn ___,0,$000
 dn ___,0,$000
 dn ___,0,$000
 dn C_5,5,$000
 dn ___,0,$000
 dn ___,0,$E00
 dn ___,0,$000
 dn ___,0,$000
 dn ___,0,$000
 dn ___,0,$000
 dn ___,0,$000
 dn ___,0,$000
 dn ___,0,$000
 dn ___,0,$000
 dn ___,0,$000
 dn ___,0,$000
 dn ___,0,$000
 dn ___,0,$000
 dn ___,0,$000
 dn C_5,5,$000
 dn ___,0,$000
 dn D_5,6,$000
 dn ___,0,$000
 dn D#5,5,$000
 dn ___,0,$000
 dn ___,0,$000
 dn ___,0,$000
 dn F_5,6,$000
 dn ___,0,$000
 dn ___,0,$E00
 dn ___,0,$000
 dn G_5,5,$000
 dn ___,0,$000
 dn ___,0,$E00
 dn ___,0,$000
 dn A_5,5,$000
 dn A#5,6,$308
 dn ___,0,$308
 dn ___,0,$308
 dn ___,0,$000
 dn ___,0,$000
 dn ___,0,$000
 dn ___,0,$000
 dn C_6,6,$000
 dn ___,0,$000
 dn ___,0,$E00
 dn ___,0,$000
 dn A#5,5,$000
 dn ___,0,$000
 dn ___,0,$000
 dn ___,0,$000
 dn G_5,6,$000
 dn ___,0,$000
 dn ___,0,$E00
 dn ___,0,$000

P18:
 dn F#5,9,$2FF
 dn ___,0,$2FF
 dn F_4,8,$000
 dn ___,0,$E00
 dn F_4,7,$000
 dn ___,0,$E00
 dn F_4,7,$000
 dn ___,0,$E00
 dn F#5,9,$2FF
 dn ___,0,$2FF
 dn F_4,6,$000
 dn ___,0,$E00
 dn F_4,5,$000
 dn ___,0,$E00
 dn F_4,5,$000
 dn ___,0,$E00
 dn F#5,9,$2FF
 dn ___,0,$2FF
 dn F_4,4,$000
 dn ___,0,$E00
 dn F_4,4,$000
 dn ___,0,$E00
 dn F_4,3,$000
 dn ___,0,$E00
 dn F#5,9,$2FF
 dn ___,0,$2FF
 dn F_4,2,$000
 dn ___,0,$E00
 dn F_6,1,$000
 dn ___,0,$000
 dn F_5,1,$000
 dn ___,0,$E00
 dn F#5,9,$2FF
 dn ___,0,$2FF
 dn A#4,8,$000
 dn ___,0,$E00
 dn A#4,7,$000
 dn ___,0,$E00
 dn A#4,7,$000
 dn ___,0,$E00
 dn F#5,9,$2FF
 dn ___,0,$2FF
 dn A#4,6,$000
 dn ___,0,$E00
 dn A#4,5,$000
 dn ___,0,$E00
 dn A#4,5,$000
 dn ___,0,$E00
 dn F#5,9,$2FF
 dn ___,0,$2FF
 dn C_5,4,$000
 dn ___,0,$E00
 dn C_5,4,$000
 dn ___,0,$E00
 dn C_5,3,$000
 dn ___,0,$E00
 dn F#5,9,$2FF
 dn ___,0,$2FF
 dn C_5,2,$000
 dn ___,0,$E00
 dn C_7,1,$000
 dn ___,0,$000
 dn C_6,1,$000
 dn ___,0,$E00

P19:
 dn F_4,1,$C0C
 dn G#4,1,$C0C
 dn C_5,1,$C0B
 dn D#5,2,$C0B
 dn F_4,2,$C0A
 dn G#4,2,$C0A
 dn C_5,3,$C09
 dn D#5,3,$C09
 dn F_4,3,$C08
 dn G#4,4,$C08
 dn C_5,4,$C07
 dn D#5,4,$C07
 dn F_4,4,$C06
 dn G#4,1,$C06
 dn C_5,1,$C05
 dn D#5,1,$C05
 dn F_4,1,$C0C
 dn G#4,1,$C0C
 dn C_5,1,$C0B
 dn D#5,2,$C0B
 dn F_4,2,$C0A
 dn G#4,2,$C0A
 dn C_5,3,$C09
 dn D#5,3,$C09
 dn F_4,3,$C08
 dn G#4,4,$C08
 dn C_5,4,$C07
 dn D#5,4,$C07
 dn F_4,4,$C06
 dn G#4,1,$C06
 dn C_5,1,$C05
 dn D#5,1,$C05
 dn G#4,1,$C0C
 dn C_5,1,$C0C
 dn D#5,1,$C0B
 dn G_5,2,$C0B
 dn G#4,2,$C0A
 dn C_5,2,$C0A
 dn D#5,3,$C09
 dn G_5,3,$C09
 dn G#4,3,$C08
 dn C_5,4,$C08
 dn D#5,4,$C07
 dn G_5,4,$C07
 dn G#4,4,$C06
 dn C_5,1,$C06
 dn D#5,1,$C05
 dn G_5,1,$C05
 dn A_4,1,$C0C
 dn C_5,1,$C0C
 dn D#5,1,$C0B
 dn G_5,2,$C0B
 dn A_4,2,$C0A
 dn C_5,2,$C0A
 dn D#5,3,$C09
 dn G_5,3,$C09
 dn A_4,3,$C08
 dn C_5,4,$C08
 dn D#5,4,$C07
 dn G_5,4,$C07
 dn A_4,4,$C06
 dn C_5,1,$C06
 dn D#5,1,$C05
 dn G_5,1,$C05

P20:
 dn G#5,5,$000
 dn ___,0,$000
 dn ___,0,$000
 dn ___,0,$000
 dn ___,0,$000
 dn ___,0,$000
 dn ___,0,$000
 dn ___,0,$000
 dn G_5,5,$000
 dn ___,0,$000
 dn ___,0,$E00
 dn ___,0,$000
 dn ___,0,$000
 dn ___,0,$000
 dn ___,0,$000
 dn ___,0,$000
 dn G#5,5,$000
 dn ___,0,$000
 dn ___,0,$000
 dn ___,0,$000
 dn C_6,5,$000
 dn ___,0,$000
 dn ___,0,$E00
 dn ___,0,$000
 dn ___,0,$000
 dn ___,0,$000
 dn ___,0,$000
 dn ___,0,$000
 dn D_6,5,$000
 dn D#6,6,$308
 dn ___,0,$308
 dn ___,0,$308
 dn ___,0,$000
 dn ___,0,$000
 dn ___,0,$000
 dn ___,0,$000
 dn D_6,5,$000
 dn ___,0,$000
 dn ___,0,$E00
 dn ___,0,$000
 dn C_6,5,$000
 dn ___,0,$000
 dn D_6,6,$000
 dn ___,0,$000
 dn ___,0,$E00
 dn ___,0,$000
 dn D#6,5,$000
 dn ___,0,$000
 dn ___,0,$000
 dn ___,0,$000
 dn ___,0,$000
 dn ___,0,$000
 dn F_6,6,$000
 dn ___,0,$000
 dn ___,0,$E00
 dn ___,0,$000
 dn G_6,5,$000
 dn ___,0,$000
 dn D#6,6,$000
 dn ___,0,$000
 dn ___,0,$E00
 dn ___,0,$000
 dn F_6,5,$000
 dn ___,0,$000

P21:
 dn F#5,9,$2FF
 dn ___,0,$2FF
 dn F_4,8,$000
 dn ___,0,$E00
 dn F_4,7,$000
 dn ___,0,$E00
 dn F_4,7,$000
 dn ___,0,$E00
 dn F#5,9,$2FF
 dn ___,0,$2FF
 dn F_4,6,$000
 dn ___,0,$E00
 dn F_4,5,$000
 dn ___,0,$E00
 dn F_4,5,$000
 dn ___,0,$E00
 dn F#5,9,$2FF
 dn ___,0,$2FF
 dn F_4,4,$000
 dn ___,0,$E00
 dn F_4,4,$000
 dn ___,0,$E00
 dn F_4,3,$000
 dn ___,0,$E00
 dn F#5,9,$2FF
 dn ___,0,$2FF
 dn F_4,2,$000
 dn ___,0,$E00
 dn F_6,1,$000
 dn ___,0,$000
 dn F_5,1,$000
 dn ___,0,$E00
 dn F#5,9,$2FF
 dn ___,0,$2FF
 dn G#4,8,$000
 dn ___,0,$E00
 dn G#4,7,$000
 dn ___,0,$E00
 dn G#4,7,$000
 dn ___,0,$E00
 dn F#5,9,$2FF
 dn ___,0,$2FF
 dn G#4,6,$000
 dn ___,0,$E00
 dn G#4,5,$000
 dn ___,0,$E00
 dn G#4,5,$000
 dn ___,0,$E00
 dn F#5,9,$2FF
 dn ___,0,$2FF
 dn A_4,4,$000
 dn ___,0,$E00
 dn A_4,4,$000
 dn ___,0,$E00
 dn A_4,3,$000
 dn ___,0,$E00
 dn F#5,9,$2FF
 dn ___,0,$2FF
 dn A_4,2,$000
 dn ___,0,$E00
 dn A_6,1,$000
 dn ___,0,$000
 dn A_5,1,$000
 dn ___,0,$E00

P22:
 dn G#4,1,$C0C
 dn C_5,1,$C0C
 dn D_5,1,$C0B
 dn F_5,2,$C0B
 dn G#4,2,$C0A
 dn C_5,2,$C0A
 dn D_5,3,$C09
 dn F_5,3,$C09
 dn G#4,3,$C08
 dn C_5,4,$C08
 dn D_5,4,$C07
 dn F_5,4,$C07
 dn G#4,4,$C06
 dn C_5,1,$C06
 dn D_5,1,$C05
 dn F_5,1,$C05
 dn G#4,1,$C0C
 dn C_5,1,$C0C
 dn C#5,1,$C0B
 dn F_5,2,$C0B
 dn G#4,2,$C0A
 dn C_5,2,$C0A
 dn C#5,3,$C09
 dn F_5,3,$C09
 dn G#4,3,$C08
 dn C_5,4,$C08
 dn C#5,4,$C07
 dn F_5,4,$C07
 dn G#4,4,$C06
 dn C_5,1,$C06
 dn C#5,1,$C05
 dn F_5,1,$C05
 dn G_4,1,$C0C
 dn A#4,1,$C0C
 dn D_5,1,$C0B
 dn F_5,2,$C0B
 dn G_4,2,$C0A
 dn A#4,2,$C0A
 dn D_5,3,$C09
 dn F_5,3,$C09
 dn G_4,3,$C08
 dn A#4,4,$C08
 dn D_5,4,$C07
 dn F_5,4,$C07
 dn G_4,4,$C06
 dn A#4,1,$C06
 dn D_5,1,$C05
 dn F_5,1,$C05
 dn G_4,1,$C0C
 dn A#4,1,$C0C
 dn C#5,1,$C0B
 dn G_5,2,$C0B
 dn G_4,2,$C0A
 dn A#4,2,$C0A
 dn C#5,3,$C09
 dn G_5,3,$C09
 dn G_4,3,$C08
 dn A#4,4,$C08
 dn C#5,4,$C07
 dn G_5,4,$C07
 dn G_4,4,$C06
 dn A#4,1,$C06
 dn C#5,1,$C05
 dn G_5,1,$C05

P23:
 dn ___,0,$000
 dn ___,0,$000
 dn ___,0,$000
 dn ___,0,$000
 dn ___,0,$220
 dn ___,0,$220
 dn ___,0,$E00
 dn ___,0,$000
 dn ___,0,$000
 dn ___,0,$000
 dn ___,0,$000
 dn ___,0,$000
 dn ___,0,$000
 dn ___,0,$000
 dn ___,0,$000
 dn ___,0,$000
 dn ___,0,$000
 dn ___,0,$000
 dn ___,0,$000
 dn ___,0,$000
 dn ___,0,$000
 dn ___,0,$000
 dn ___,0,$000
 dn ___,0,$000
 dn ___,0,$000
 dn ___,0,$000
 dn ___,0,$000
 dn ___,0,$000
 dn C#6,5,$000
 dn D#6,6,$308
 dn ___,0,$308
 dn ___,0,$308
 dn ___,0,$000
 dn ___,0,$000
 dn ___,0,$000
 dn ___,0,$000
 dn C#6,5,$000
 dn ___,0,$000
 dn ___,0,$E00
 dn ___,0,$000
 dn ___,0,$000
 dn ___,0,$000
 dn ___,0,$000
 dn ___,0,$000
 dn A#5,5,$000
 dn C_6,6,$308
 dn ___,0,$308
 dn ___,0,$308
 dn ___,0,$000
 dn ___,0,$000
 dn ___,0,$000
 dn ___,0,$000
 dn ___,0,$000
 dn ___,0,$000
 dn C#6,6,$000
 dn C_6,6,$000
 dn A#5,5,$000
 dn ___,0,$F03
 dn ___,0,$000
 dn ___,0,$F03
 dn G_5,5,$000
 dn ___,0,$000
 dn ___,0,$E00
 dn ___,0,$000

P24:
 dn F#5,9,$2FF
 dn ___,0,$2FF
 dn A#4,7,$000
 dn ___,0,$E00
 dn A#4,7,$000
 dn ___,0,$E00
 dn A#4,7,$000
 dn ___,0,$E00
 dn F#5,9,$2FF
 dn ___,0,$2FF
 dn A#4,6,$000
 dn ___,0,$E00
 dn A#4,5,$000
 dn ___,0,$E00
 dn A#4,5,$000
 dn ___,0,$E00
 dn F#5,9,$2FF
 dn ___,0,$2FF
 dn A#4,4,$000
 dn ___,0,$E00
 dn A#4,4,$000
 dn ___,0,$E00
 dn A#4,3,$000
 dn ___,0,$E00
 dn F#5,9,$2FF
 dn ___,0,$2FF
 dn A#4,2,$000
 dn ___,0,$E00
 dn A#6,1,$000
 dn ___,0,$000
 dn A#5,1,$000
 dn ___,0,$E00
 dn F#5,9,$2FF
 dn ___,0,$2FF
 dn C#4,8,$000
 dn ___,0,$E00
 dn C#5,7,$000
 dn ___,0,$E00
 dn C#4,7,$000
 dn ___,0,$E00
 dn F#5,9,$2FF
 dn ___,0,$2FF
 dn C#4,6,$000
 dn ___,0,$E00
 dn C#5,5,$000
 dn ___,0,$E00
 dn C#4,5,$000
 dn ___,0,$E00
 dn F#5,9,$2FF
 dn ___,0,$2FF
 dn D#4,4,$000
 dn ___,0,$E00
 dn D#5,4,$000
 dn ___,0,$E00
 dn D#4,3,$000
 dn ___,0,$E00
 dn F#5,9,$2FF
 dn ___,0,$2FF
 dn E_4,2,$000
 dn ___,0,$E00
 dn E_6,1,$000
 dn ___,0,$000
 dn E_5,1,$000
 dn ___,0,$E00

P25:
 dn F#7,1,$F04
 dn ___,0,$F03
 dn ___,0,$F04
 dn ___,0,$F03
 dn F#7,2,$F04
 dn ___,0,$F03
 dn ___,0,$F04
 dn ___,0,$F03
 dn F#7,1,$F04
 dn ___,0,$F03
 dn ___,0,$F04
 dn ___,0,$F03
 dn F#7,2,$F04
 dn ___,0,$F03
 dn ___,0,$F04
 dn ___,0,$F03
 dn F#7,1,$F04
 dn ___,0,$F03
 dn ___,0,$F04
 dn ___,0,$F03
 dn F#7,2,$F04
 dn ___,0,$F03
 dn ___,0,$F04
 dn ___,0,$F03
 dn F#7,1,$F04
 dn ___,0,$F03
 dn F#7,1,$F04
 dn ___,0,$F03
 dn F#7,2,$F04
 dn ___,0,$F03
 dn ___,0,$F04
 dn ___,0,$F03
 dn D_7,3,$F04
 dn ___,0,$F03
 dn ___,0,$F04
 dn ___,0,$F03
 dn F#7,2,$F04
 dn ___,0,$F03
 dn ___,0,$F04
 dn ___,0,$F03
 dn D_7,3,$F04
 dn ___,0,$F03
 dn ___,0,$F04
 dn ___,0,$F03
 dn F#7,2,$F04
 dn ___,0,$F03
 dn ___,0,$F04
 dn ___,0,$F03
 dn D_7,3,$F04
 dn ___,0,$F03
 dn ___,0,$F04
 dn ___,0,$F03
 dn C_7,3,$F04
 dn ___,0,$F03
 dn ___,0,$F04
 dn ___,0,$F03
 dn D_7,3,$F04
 dn ___,0,$E00
 dn D_7,3,$F04
 dn ___,0,$E00
 dn C_7,3,$F04
 dn ___,0,$F03
 dn ___,0,$F04
 dn ___,0,$F03

P26:
 dn F#5,9,$2FF
 dn ___,0,$2FF
 dn A#4,7,$000
 dn ___,0,$E00
 dn A#4,7,$000
 dn ___,0,$E00
 dn A#4,7,$000
 dn ___,0,$E00
 dn F#5,9,$2FF
 dn ___,0,$2FF
 dn A#4,6,$000
 dn ___,0,$E00
 dn A#4,5,$000
 dn ___,0,$E00
 dn A#4,5,$000
 dn ___,0,$E00
 dn F#5,9,$2FF
 dn ___,0,$2FF
 dn A#4,4,$000
 dn ___,0,$E00
 dn A#4,4,$000
 dn ___,0,$E00
 dn A#4,3,$000
 dn ___,0,$E00
 dn F#5,9,$2FF
 dn ___,0,$2FF
 dn A#4,2,$000
 dn ___,0,$E00
 dn A#6,1,$000
 dn ___,0,$000
 dn A#5,1,$000
 dn ___,0,$E00
 dn F#5,9,$2FF
 dn ___,0,$2FF
 dn C_4,8,$000
 dn ___,0,$E00
 dn C_5,7,$000
 dn ___,0,$E00
 dn C_4,7,$000
 dn ___,0,$E00
 dn F#5,9,$2FF
 dn ___,0,$2FF
 dn C_4,6,$000
 dn ___,0,$E00
 dn C_5,5,$000
 dn ___,0,$E00
 dn C_4,5,$000
 dn ___,0,$E00
 dn F#5,9,$2FF
 dn ___,0,$2FF
 dn C#4,4,$000
 dn ___,0,$E00
 dn C#5,4,$000
 dn ___,0,$E00
 dn C#4,3,$000
 dn ___,0,$E00
 dn F#5,9,$2FF
 dn ___,0,$2FF
 dn C#4,2,$000
 dn ___,0,$E00
 dn C#6,1,$000
 dn ___,0,$000
 dn C#5,1,$000
 dn ___,0,$E00

P27:
 dn A_5,5,$000
 dn ___,0,$000
 dn ___,0,$000
 dn ___,0,$000
 dn ___,0,$000
 dn ___,0,$000
 dn ___,0,$000
 dn ___,0,$000
 dn A_6,6,$308
 dn ___,0,$308
 dn ___,0,$308
 dn ___,0,$308
 dn ___,0,$308
 dn ___,0,$308
 dn ___,0,$308
 dn ___,0,$308
 dn ___,0,$308
 dn ___,0,$000
 dn ___,0,$000
 dn ___,0,$000
 dn ___,0,$A01
 dn ___,0,$000
 dn ___,0,$A01
 dn ___,0,$000
 dn ___,0,$A01
 dn ___,0,$000
 dn ___,0,$A01
 dn ___,0,$000
 dn ___,0,$A01
 dn ___,0,$000
 dn ___,0,$A01
 dn ___,0,$000
 dn ___,0,$A01
 dn ___,0,$000
 dn ___,0,$A01
 dn ___,0,$000
 dn ___,0,$A01
 dn ___,0,$000
 dn ___,0,$A01
 dn ___,0,$000
 dn ___,0,$A01
 dn ___,0,$000
 dn ___,0,$A01
 dn ___,0,$000
 dn ___,0,$A01
 dn ___,0,$000
 dn ___,0,$A01
 dn ___,0,$000
 dn ___,0,$A01
 dn ___,0,$000
 dn ___,0,$A01
 dn ___,0,$000
 dn ___,0,$000
 dn ___,0,$000
 dn ___,0,$000
 dn ___,0,$000
 dn ___,0,$000
 dn ___,0,$000
 dn ___,0,$000
 dn ___,0,$000
 dn ___,0,$000
 dn ___,0,$000
 dn ___,0,$000
 dn ___,0,$000

P28:
 dn F#7,1,$F04
 dn ___,0,$F03
 dn ___,0,$F04
 dn ___,0,$F03
 dn F#7,2,$F04
 dn ___,0,$F03
 dn ___,0,$F04
 dn ___,0,$F03
 dn D_7,3,$F04
 dn ___,0,$F03
 dn ___,0,$F04
 dn ___,0,$F03
 dn F#7,2,$F04
 dn ___,0,$F03
 dn ___,0,$F04
 dn ___,0,$F03
 dn F#7,1,$F04
 dn ___,0,$F03
 dn ___,0,$F04
 dn ___,0,$F03
 dn F#7,2,$F04
 dn ___,0,$F03
 dn ___,0,$F04
 dn ___,0,$F03
 dn D_7,3,$F04
 dn ___,0,$F03
 dn F#7,1,$F04
 dn ___,0,$F03
 dn F#7,2,$F04
 dn ___,0,$F03
 dn ___,0,$F04
 dn ___,0,$F03
 dn F#7,1,$F04
 dn ___,0,$F03
 dn ___,0,$F04
 dn ___,0,$F03
 dn F#7,2,$F04
 dn ___,0,$F03
 dn ___,0,$F04
 dn ___,0,$F03
 dn D_7,3,$F04
 dn ___,0,$F03
 dn ___,0,$F04
 dn ___,0,$F03
 dn F#7,2,$F04
 dn ___,0,$F03
 dn ___,0,$F04
 dn ___,0,$F03
 dn F#7,1,$F04
 dn ___,0,$F03
 dn ___,0,$F04
 dn ___,0,$F03
 dn F#7,2,$F04
 dn ___,0,$F03
 dn ___,0,$F04
 dn ___,0,$F03
 dn D_7,3,$F04
 dn ___,0,$F03
 dn F#7,1,$F04
 dn ___,0,$F03
 dn F#7,2,$F04
 dn ___,0,$F03
 dn ___,0,$F04
 dn ___,0,$F03

P29:
 dn G_5,7,$000
 dn ___,0,$000
 dn A_5,7,$000
 dn ___,0,$000
 dn ___,0,$000
 dn ___,0,$000
 dn C_6,7,$000
 dn ___,0,$000
 dn ___,0,$000
 dn ___,0,$000
 dn G_5,7,$000
 dn ___,0,$000
 dn A_5,7,$000
 dn ___,0,$000
 dn ___,0,$000
 dn ___,0,$000
 dn C_6,7,$000
 dn ___,0,$000
 dn G_5,7,$000
 dn ___,0,$000
 dn ___,0,$000
 dn ___,0,$000
 dn A_5,7,$000
 dn ___,0,$000
 dn ___,0,$000
 dn ___,0,$000
 dn C_6,7,$000
 dn ___,0,$000
 dn G_5,7,$000
 dn ___,0,$000
 dn ___,0,$000
 dn ___,0,$000
 dn A_5,7,$000
 dn ___,0,$000
 dn C_6,7,$000
 dn ___,0,$000
 dn ___,0,$000
 dn ___,0,$000
 dn G_5,7,$000
 dn ___,0,$000
 dn ___,0,$000
 dn ___,0,$000
 dn A_5,7,$000
 dn ___,0,$000
 dn C_6,7,$000
 dn ___,0,$000
 dn ___,0,$000
 dn ___,0,$000
 dn G_5,7,$000
 dn ___,0,$000
 dn A_5,7,$000
 dn ___,0,$000
 dn ___,0,$000
 dn ___,0,$000
 dn C_6,7,$000
 dn ___,0,$000
 dn ___,0,$000
 dn ___,0,$000
 dn G_5,7,$000
 dn ___,0,$000
 dn A_5,7,$000
 dn ___,0,$000
 dn ___,0,$000
 dn ___,0,$000

P30:
 dn D_6,7,$000
 dn ___,0,$000
 dn G_5,7,$000
 dn ___,0,$000
 dn ___,0,$000
 dn ___,0,$000
 dn A_5,7,$000
 dn ___,0,$000
 dn ___,0,$000
 dn ___,0,$000
 dn D_6,7,$000
 dn ___,0,$000
 dn G_5,7,$000
 dn ___,0,$000
 dn ___,0,$000
 dn ___,0,$000
 dn A_5,7,$000
 dn ___,0,$000
 dn D_6,7,$000
 dn ___,0,$000
 dn ___,0,$000
 dn ___,0,$000
 dn G_5,7,$000
 dn ___,0,$000
 dn ___,0,$000
 dn ___,0,$000
 dn A_5,7,$000
 dn ___,0,$000
 dn D_6,7,$000
 dn ___,0,$000
 dn ___,0,$000
 dn ___,0,$000
 dn G_5,7,$000
 dn ___,0,$000
 dn A_5,7,$000
 dn ___,0,$000
 dn ___,0,$000
 dn ___,0,$000
 dn D_6,7,$000
 dn ___,0,$000
 dn ___,0,$000
 dn ___,0,$000
 dn G_5,7,$000
 dn ___,0,$000
 dn A_5,7,$000
 dn ___,0,$000
 dn ___,0,$000
 dn ___,0,$000
 dn D_6,7,$000
 dn ___,0,$000
 dn G_5,7,$000
 dn ___,0,$000
 dn ___,0,$000
 dn ___,0,$000
 dn A_5,7,$000
 dn ___,0,$000
 dn ___,0,$000
 dn ___,0,$000
 dn D_6,7,$000
 dn ___,0,$000
 dn G_5,7,$000
 dn ___,0,$000
 dn ___,0,$000
 dn ___,0,$000

P31:
 dn A_5,7,$000
 dn ___,0,$000
 dn D_6,7,$000
 dn ___,0,$000
 dn ___,0,$000
 dn ___,0,$000
 dn G_5,7,$000
 dn ___,0,$000
 dn ___,0,$000
 dn ___,0,$000
 dn A_5,7,$000
 dn ___,0,$000
 dn D_6,7,$000
 dn ___,0,$000
 dn ___,0,$000
 dn ___,0,$000
 dn G_5,7,$000
 dn ___,0,$000
 dn A_5,7,$000
 dn ___,0,$000
 dn ___,0,$000
 dn ___,0,$000
 dn D_6,7,$000
 dn ___,0,$000
 dn ___,0,$000
 dn ___,0,$000
 dn G_5,7,$000
 dn ___,0,$000
 dn A_5,7,$000
 dn ___,0,$000
 dn ___,0,$000
 dn ___,0,$000
 dn D_6,7,$000
 dn ___,0,$000
 dn G_5,7,$000
 dn ___,0,$000
 dn ___,0,$000
 dn ___,0,$000
 dn A_5,7,$000
 dn ___,0,$000
 dn ___,0,$000
 dn ___,0,$000
 dn D_6,7,$000
 dn ___,0,$000
 dn G_5,7,$000
 dn ___,0,$000
 dn ___,0,$000
 dn ___,0,$000
 dn A_5,7,$000
 dn ___,0,$000
 dn D_6,7,$000
 dn ___,0,$000
 dn ___,0,$000
 dn ___,0,$000
 dn G_5,7,$000
 dn ___,0,$000
 dn ___,0,$000
 dn ___,0,$000
 dn A_5,7,$000
 dn ___,0,$000
 dn D_6,7,$000
 dn ___,0,$F03
 dn ___,0,$000
 dn ___,0,$F03

P32:
 dn F#7,1,$F04
 dn ___,0,$F03
 dn ___,0,$F04
 dn ___,0,$F03
 dn F#7,2,$F04
 dn ___,0,$F03
 dn ___,0,$F04
 dn ___,0,$F03
 dn D_7,3,$F04
 dn ___,0,$F03
 dn ___,0,$F04
 dn ___,0,$F03
 dn F#7,2,$F04
 dn ___,0,$F03
 dn ___,0,$F04
 dn ___,0,$F03
 dn F#7,1,$F04
 dn ___,0,$F03
 dn ___,0,$F04
 dn ___,0,$F03
 dn F#7,2,$F04
 dn ___,0,$F03
 dn ___,0,$F04
 dn ___,0,$F03
 dn D_7,3,$F04
 dn ___,0,$F03
 dn F#7,1,$F04
 dn ___,0,$F03
 dn F#7,2,$F04
 dn ___,0,$F03
 dn ___,0,$F04
 dn ___,0,$F03
 dn F#7,1,$F04
 dn ___,0,$F03
 dn ___,0,$F04
 dn ___,0,$F03
 dn F#7,2,$F04
 dn ___,0,$F03
 dn ___,0,$F04
 dn ___,0,$F03
 dn D_7,3,$F04
 dn ___,0,$F03
 dn ___,0,$F04
 dn ___,0,$F03
 dn F#7,2,$F04
 dn ___,0,$F03
 dn ___,0,$F04
 dn ___,0,$F03
 dn F#7,1,$F04
 dn ___,0,$F03
 dn ___,0,$F04
 dn ___,0,$F03
 dn F#7,2,$F04
 dn ___,0,$F03
 dn ___,0,$F04
 dn ___,0,$F03
 dn D_7,3,$F04
 dn ___,0,$F03
 dn F#7,1,$F04
 dn ___,0,$F03
 dn F#7,2,$F04
 dn ___,0,$E00
 dn F#7,2,$F04
 dn ___,0,$E00

P33:
 dn A_6,4,$F04
 dn ___,0,$F03
 dn ___,0,$F04
 dn ___,0,$F03
 dn ___,0,$F04
 dn ___,0,$F03
 dn ___,0,$F04
 dn ___,0,$F03
 dn ___,0,$F04
 dn ___,0,$F03
 dn ___,0,$F04
 dn ___,0,$F03
 dn ___,0,$F04
 dn ___,0,$F03
 dn ___,0,$F04
 dn ___,0,$F03
 dn ___,0,$F04
 dn ___,0,$F03
 dn ___,0,$F04
 dn ___,0,$F03
 dn ___,0,$F04
 dn ___,0,$F03
 dn ___,0,$F04
 dn ___,0,$F03
 dn ___,0,$F04
 dn ___,0,$F03
 dn ___,0,$F04
 dn ___,0,$F03
 dn ___,0,$F04
 dn ___,0,$F03
 dn ___,0,$F04
 dn ___,0,$F03
 dn ___,0,$F04
 dn ___,0,$F03
 dn ___,0,$F04
 dn ___,0,$F03
 dn ___,0,$F04
 dn ___,0,$F03
 dn ___,0,$F04
 dn ___,0,$F03
 dn ___,0,$F04
 dn ___,0,$F03
 dn ___,0,$F04
 dn ___,0,$F03
 dn ___,0,$F04
 dn ___,0,$F03
 dn ___,0,$F04
 dn ___,0,$F03
 dn E_7,5,$F04
 dn ___,0,$F03
 dn G#7,5,$F04
 dn ___,0,$F03
 dn ___,0,$F04
 dn ___,0,$F03
 dn E_7,5,$F04
 dn ___,0,$F03
 dn G#7,5,$F04
 dn ___,0,$F03
 dn ___,0,$F04
 dn ___,0,$F03
 dn E_7,5,$F04
 dn ___,0,$F03
 dn G#7,5,$F04
 dn ___,0,$F03

P34:
 dn ___,0,$F04
 dn ___,0,$F03
 dn E_7,5,$F04
 dn ___,0,$F03
 dn ___,0,$F04
 dn ___,0,$F03
 dn ___,0,$F04
 dn ___,0,$F03
 dn ___,0,$F04
 dn ___,0,$F03
 dn ___,0,$F04
 dn ___,0,$F03
 dn ___,0,$F04
 dn ___,0,$F03
 dn ___,0,$F04
 dn ___,0,$F03
 dn E_7,5,$F04
 dn ___,0,$F03
 dn G#7,5,$F04
 dn ___,0,$F03
 dn ___,0,$F04
 dn ___,0,$F03
 dn E_7,5,$F04
 dn ___,0,$F03
 dn G#7,5,$F04
 dn ___,0,$F03
 dn ___,0,$F04
 dn ___,0,$F03
 dn D#7,5,$F04
 dn ___,0,$F03
 dn G_7,5,$F04
 dn ___,0,$F03
 dn ___,0,$F04
 dn ___,0,$F03
 dn D#7,5,$F04
 dn ___,0,$F03
 dn ___,0,$F04
 dn ___,0,$F03
 dn ___,0,$F04
 dn ___,0,$F03
 dn ___,0,$F04
 dn ___,0,$F03
 dn ___,0,$F04
 dn ___,0,$F03
 dn ___,0,$F04
 dn ___,0,$F03
 dn ___,0,$F04
 dn ___,0,$F03
 dn D#7,5,$F04
 dn ___,0,$F03
 dn G_7,5,$F04
 dn ___,0,$F03
 dn ___,0,$F04
 dn ___,0,$F03
 dn D#7,5,$F04
 dn ___,0,$F03
 dn G_7,5,$F04
 dn ___,0,$F03
 dn ___,0,$F04
 dn ___,0,$F03
 dn E_7,5,$F04
 dn ___,0,$F03
 dn G#7,5,$F04
 dn ___,0,$F03

P35:
 dn ___,0,$F04
 dn ___,0,$F03
 dn E_7,5,$F04
 dn ___,0,$F03
 dn ___,0,$F04
 dn ___,0,$F03
 dn ___,0,$F04
 dn ___,0,$F03
 dn ___,0,$F04
 dn ___,0,$F03
 dn ___,0,$F04
 dn ___,0,$F03
 dn ___,0,$F04
 dn ___,0,$F03
 dn ___,0,$F04
 dn ___,0,$F03
 dn E_7,5,$F04
 dn ___,0,$F03
 dn G#7,5,$F04
 dn ___,0,$F03
 dn ___,0,$F04
 dn ___,0,$F03
 dn E_7,5,$F04
 dn ___,0,$F03
 dn G#7,5,$F04
 dn ___,0,$F03
 dn ___,0,$F04
 dn ___,0,$F03
 dn E_7,5,$F04
 dn ___,0,$F03
 dn G#7,5,$F04
 dn ___,0,$F03
 dn ___,0,$F04
 dn ___,0,$F03
 dn E_7,5,$F04
 dn ___,0,$F03
 dn ___,0,$F04
 dn ___,0,$F03
 dn ___,0,$F04
 dn ___,0,$F03
 dn ___,0,$F04
 dn ___,0,$F03
 dn ___,0,$F04
 dn ___,0,$F03
 dn ___,0,$F04
 dn ___,0,$F03
 dn ___,0,$F04
 dn ___,0,$F03
 dn E_7,5,$F04
 dn ___,0,$F03
 dn G#7,5,$F04
 dn ___,0,$F03
 dn ___,0,$F04
 dn ___,0,$F03
 dn E_7,5,$F04
 dn ___,0,$F03
 dn G#7,5,$F04
 dn ___,0,$F03
 dn ___,0,$F04
 dn ___,0,$F03
 dn E_7,5,$F04
 dn ___,0,$F03
 dn G#7,5,$F04
 dn ___,0,$F03

P36:
 dn ___,0,$000
 dn ___,0,$000
 dn ___,0,$000
 dn ___,0,$000
 dn ___,0,$000
 dn ___,0,$000
 dn ___,0,$000
 dn ___,0,$000
 dn ___,0,$000
 dn ___,0,$000
 dn ___,0,$000
 dn ___,0,$000
 dn ___,0,$000
 dn ___,0,$000
 dn ___,0,$000
 dn ___,0,$000
 dn ___,0,$000
 dn ___,0,$000
 dn ___,0,$000
 dn ___,0,$000
 dn ___,0,$000
 dn ___,0,$000
 dn ___,0,$000
 dn ___,0,$000
 dn ___,0,$000
 dn ___,0,$000
 dn ___,0,$000
 dn ___,0,$000
 dn ___,0,$000
 dn ___,0,$000
 dn ___,0,$000
 dn ___,0,$000
 dn ___,0,$000
 dn ___,0,$000
 dn ___,0,$000
 dn ___,0,$000
 dn ___,0,$000
 dn ___,0,$000
 dn ___,0,$000
 dn ___,0,$000
 dn ___,0,$000
 dn ___,0,$000
 dn ___,0,$000
 dn ___,0,$000
 dn ___,0,$000
 dn ___,0,$000
 dn ___,0,$000
 dn ___,0,$000
 dn ___,0,$000
 dn ___,0,$000
 dn ___,0,$000
 dn ___,0,$000
 dn ___,0,$000
 dn ___,0,$000
 dn ___,0,$000
 dn ___,0,$000
 dn ___,0,$000
 dn ___,0,$F03
 dn ___,0,$000
 dn ___,0,$F03
 dn ___,0,$000
 dn ___,0,$000
 dn ___,0,$000
 dn ___,0,$000

P38:
 dn A_6,4,$F04
 dn ___,0,$F03
 dn ___,0,$F04
 dn ___,0,$F03
 dn ___,0,$F04
 dn ___,0,$F03
 dn ___,0,$F04
 dn ___,0,$F03
 dn ___,0,$F04
 dn ___,0,$F03
 dn ___,0,$F04
 dn ___,0,$F03
 dn ___,0,$F04
 dn ___,0,$F03
 dn ___,0,$F04
 dn ___,0,$F03
 dn ___,0,$F04
 dn ___,0,$F03
 dn ___,0,$F04
 dn ___,0,$F03
 dn ___,0,$F04
 dn ___,0,$F03
 dn ___,0,$F04
 dn ___,0,$F03
 dn ___,0,$F04
 dn ___,0,$F03
 dn ___,0,$F04
 dn ___,0,$F03
 dn ___,0,$F04
 dn ___,0,$F03
 dn ___,0,$F04
 dn ___,0,$F03
 dn D_7,3,$F04
 dn ___,0,$F03
 dn ___,0,$F04
 dn ___,0,$F03
 dn ___,0,$F04
 dn ___,0,$F03
 dn D_7,3,$F04
 dn ___,0,$F03
 dn ___,0,$F04
 dn ___,0,$F03
 dn ___,0,$F04
 dn ___,0,$F03
 dn D_7,3,$F04
 dn ___,0,$F03
 dn ___,0,$F04
 dn ___,0,$F03
 dn ___,0,$F04
 dn ___,0,$F03
 dn D_7,3,$F04
 dn ___,0,$F03
 dn ___,0,$F04
 dn ___,0,$F03
 dn ___,0,$F04
 dn ___,0,$F03
 dn D_7,3,$F04
 dn ___,0,$E00
 dn D_7,3,$F04
 dn ___,0,$E00
 dn D_7,3,$F04
 dn ___,0,$F03
 dn ___,0,$F04
 dn ___,0,$F03

P42:
 dn F_4,8,$C0C
 dn A_4,8,$C0C
 dn C_5,8,$C0B
 dn E_5,9,$C0B
 dn F_4,9,$C0A
 dn A_4,9,$C0A
 dn C_5,10,$C09
 dn E_5,10,$C09
 dn F_4,10,$C08
 dn A_4,11,$C08
 dn C_5,11,$C07
 dn E_5,11,$C07
 dn F_4,11,$C06
 dn A_4,8,$C06
 dn C_5,8,$C05
 dn E_5,8,$C05
 dn F_4,8,$C0C
 dn A_4,8,$C0C
 dn C_5,8,$C0B
 dn D#5,9,$C0B
 dn F_4,9,$C0A
 dn A_4,9,$C0A
 dn C_5,10,$C09
 dn D#5,10,$C09
 dn F_4,10,$C08
 dn A_4,11,$C08
 dn C_5,11,$C07
 dn D#5,11,$C07
 dn F_4,11,$C06
 dn A_4,8,$C06
 dn C_5,8,$C05
 dn D#5,8,$C05
 dn F_4,8,$C0C
 dn G_4,8,$C0C
 dn A#4,8,$C0B
 dn D_5,9,$C0B
 dn F_4,9,$C0A
 dn G_4,9,$C0A
 dn A#4,10,$C09
 dn D_5,10,$C09
 dn F_4,10,$C08
 dn G_4,11,$C08
 dn A#4,11,$C07
 dn D_5,11,$C07
 dn F_4,11,$C06
 dn G_4,8,$C06
 dn A#4,8,$C05
 dn D_5,8,$C05
 dn G_4,8,$C0C
 dn A#4,8,$C0C
 dn D_5,8,$C0B
 dn E_5,9,$C0B
 dn G_4,9,$C0A
 dn A#4,9,$C0A
 dn D_5,10,$C09
 dn E_5,10,$C09
 dn G_4,10,$C08
 dn A#4,11,$C08
 dn D_5,11,$C07
 dn E_5,11,$C07
 dn G_4,11,$C06
 dn A#4,8,$C06
 dn D_5,8,$C05
 dn E_5,8,$C05

P43:
 dn F_4,8,$C0C
 dn A_4,8,$C0C
 dn C_5,8,$C0B
 dn E_5,9,$C0B
 dn F_4,9,$C0A
 dn A_4,9,$C0A
 dn C_5,10,$C09
 dn E_5,10,$C09
 dn F_4,10,$C08
 dn A_4,11,$C08
 dn C_5,11,$C07
 dn E_5,11,$C07
 dn F_4,11,$C06
 dn A_4,8,$C06
 dn C_5,8,$C05
 dn E_5,8,$C05
 dn F_4,8,$C0C
 dn A_4,8,$C0C
 dn C_5,8,$C0B
 dn D#5,9,$C0B
 dn F_4,9,$C0A
 dn A_4,9,$C0A
 dn C_5,10,$C09
 dn D#5,10,$C09
 dn F_4,10,$C08
 dn A_4,11,$C08
 dn C_5,11,$C07
 dn D#5,11,$C07
 dn F_4,11,$C06
 dn A_4,8,$C06
 dn C_5,8,$C05
 dn D#5,8,$C05
 dn F_4,8,$C0C
 dn G_4,8,$C0C
 dn A#4,8,$C0B
 dn D_5,9,$C0B
 dn F_4,9,$C0A
 dn G_4,9,$C0A
 dn A#4,10,$C09
 dn D_5,10,$C09
 dn F_4,10,$C08
 dn G_4,11,$C08
 dn A#4,11,$C07
 dn D_5,11,$C07
 dn F_4,11,$C06
 dn G_4,8,$C06
 dn A#4,8,$C05
 dn D_5,8,$C05
 dn D#4,8,$C0C
 dn G_4,8,$C0C
 dn A#4,8,$C0B
 dn D_5,9,$C0B
 dn D#4,9,$C0A
 dn G_4,9,$C0A
 dn A#4,10,$C09
 dn D_5,10,$C09
 dn D#4,10,$C08
 dn G_4,11,$C08
 dn A#4,11,$C07
 dn D_5,11,$C07
 dn D#4,11,$C06
 dn G_4,8,$C06
 dn A#4,8,$C05
 dn D_5,8,$C05

P44:
 dn G#4,8,$C0C
 dn C_5,8,$C0C
 dn D_5,8,$C0B
 dn F_5,9,$C0B
 dn G#4,9,$C0A
 dn C_5,9,$C0A
 dn D_5,10,$C09
 dn F_5,10,$C09
 dn G#4,10,$C08
 dn C_5,11,$C08
 dn D_5,11,$C07
 dn F_5,11,$C07
 dn G#4,11,$C06
 dn C_5,8,$C06
 dn D_5,8,$C05
 dn F_5,8,$C05
 dn G#4,8,$C0C
 dn C_5,8,$C0C
 dn C#5,8,$C0B
 dn F_5,9,$C0B
 dn G#4,9,$C0A
 dn C_5,9,$C0A
 dn C#5,10,$C09
 dn F_5,10,$C09
 dn G#4,10,$C08
 dn C_5,11,$C08
 dn C#5,11,$C07
 dn F_5,11,$C07
 dn G#4,11,$C06
 dn C_5,8,$C06
 dn C#5,8,$C05
 dn F_5,8,$C05
 dn G#4,8,$C0C
 dn C_5,8,$C0C
 dn C#5,8,$C0B
 dn F_5,9,$C0B
 dn G#4,9,$C0A
 dn C_5,9,$C0A
 dn C#5,10,$C09
 dn F_5,10,$C09
 dn G#4,10,$C08
 dn C_5,11,$C08
 dn C#5,11,$C07
 dn F_5,11,$C07
 dn G#4,11,$C06
 dn C_5,8,$C06
 dn C#5,8,$C05
 dn F_5,8,$C05
 dn G_4,8,$C0C
 dn A#4,8,$C0C
 dn C#5,8,$C0B
 dn E_5,9,$C0B
 dn G_4,9,$C0A
 dn A#4,9,$C0A
 dn C#5,10,$C09
 dn E_5,10,$C09
 dn G_4,10,$C08
 dn A#4,11,$C08
 dn C#5,11,$C07
 dn E_5,11,$C07
 dn G_4,11,$C06
 dn A#4,8,$C06
 dn C#5,8,$C05
 dn E_5,8,$C05

P45:
 dn F_4,8,$C0C
 dn G#4,8,$C0C
 dn C_5,8,$C0B
 dn D#5,9,$C0B
 dn F_4,9,$C0A
 dn G#4,9,$C0A
 dn C_5,10,$C09
 dn D#5,10,$C09
 dn F_4,10,$C08
 dn G#4,11,$C08
 dn C_5,11,$C07
 dn D#5,11,$C07
 dn F_4,11,$C06
 dn G#4,8,$C06
 dn C_5,8,$C05
 dn D#5,8,$C05
 dn F_4,8,$C0C
 dn G#4,8,$C0C
 dn C_5,8,$C0B
 dn D#5,9,$C0B
 dn F_4,9,$C0A
 dn G#4,9,$C0A
 dn C_5,10,$C09
 dn D#5,10,$C09
 dn F_4,10,$C08
 dn G#4,11,$C08
 dn C_5,11,$C07
 dn D#5,11,$C07
 dn F_4,11,$C06
 dn G#4,8,$C06
 dn C_5,8,$C05
 dn D#5,8,$C05
 dn G#4,8,$C0C
 dn C_5,8,$C0C
 dn D#5,8,$C0B
 dn G_5,9,$C0B
 dn G#4,9,$C0A
 dn C_5,9,$C0A
 dn D#5,10,$C09
 dn G_5,10,$C09
 dn G#4,10,$C08
 dn C_5,11,$C08
 dn D#5,11,$C07
 dn G_5,11,$C07
 dn G#4,11,$C06
 dn C_5,8,$C06
 dn D#5,8,$C05
 dn G_5,8,$C05
 dn A_4,8,$C0C
 dn C_5,8,$C0C
 dn D#5,8,$C0B
 dn G_5,9,$C0B
 dn A_4,9,$C0A
 dn C_5,9,$C0A
 dn D#5,10,$C09
 dn G_5,10,$C09
 dn A_4,10,$C08
 dn C_5,11,$C08
 dn D#5,11,$C07
 dn G_5,11,$C07
 dn A_4,11,$C06
 dn C_5,8,$C06
 dn D#5,8,$C05
 dn G_5,8,$C05

P46:
 dn B_5,5,$000
 dn C_6,6,$308
 dn ___,0,$308
 dn ___,0,$308
 dn ___,0,$000
 dn ___,0,$000
 dn ___,0,$000
 dn ___,0,$000
 dn D_6,5,$000
 dn ___,0,$000
 dn ___,0,$E00
 dn ___,0,$000
 dn ___,0,$000
 dn ___,0,$000
 dn ___,0,$000
 dn ___,0,$000
 dn C_6,5,$000
 dn ___,0,$000
 dn ___,0,$000
 dn ___,0,$000
 dn D_6,5,$000
 dn ___,0,$000
 dn ___,0,$E00
 dn ___,0,$000
 dn ___,0,$000
 dn ___,0,$000
 dn ___,0,$000
 dn ___,0,$000
 dn E_6,5,$000
 dn F_6,6,$308
 dn ___,0,$308
 dn ___,0,$308
 dn ___,0,$000
 dn ___,0,$000
 dn ___,0,$000
 dn ___,0,$000
 dn D_6,5,$000
 dn ___,0,$000
 dn ___,0,$E00
 dn ___,0,$000
 dn ___,0,$000
 dn ___,0,$000
 dn ___,0,$000
 dn ___,0,$000
 dn C_6,5,$000
 dn ___,0,$000
 dn ___,0,$000
 dn ___,0,$000
 dn ___,0,$000
 dn ___,0,$000
 dn ___,0,$000
 dn ___,0,$000
 dn D_6,5,$000
 dn ___,0,$000
 dn ___,0,$E00
 dn ___,0,$000
 dn G#5,5,$000
 dn ___,0,$000
 dn G_5,6,$000
 dn ___,0,$000
 dn F_5,5,$000
 dn ___,0,$000
 dn ___,0,$000
 dn ___,0,$000

P47:
 dn ___,0,$000
 dn ___,0,$000
 dn ___,0,$000
 dn ___,0,$000
 dn D_5,5,$000
 dn ___,0,$000
 dn ___,0,$E00
 dn ___,0,$000
 dn ___,0,$000
 dn ___,0,$000
 dn ___,0,$000
 dn ___,0,$000
 dn C_5,5,$000
 dn ___,0,$000
 dn ___,0,$E00
 dn ___,0,$000
 dn ___,0,$000
 dn ___,0,$000
 dn ___,0,$000
 dn ___,0,$000
 dn ___,0,$000
 dn ___,0,$000
 dn ___,0,$000
 dn ___,0,$000
 dn ___,0,$000
 dn ___,0,$000
 dn ___,0,$000
 dn ___,0,$000
 dn C_5,5,$000
 dn ___,0,$000
 dn D_5,6,$000
 dn ___,0,$000
 dn D#5,5,$000
 dn ___,0,$000
 dn ___,0,$000
 dn ___,0,$000
 dn F_5,6,$000
 dn ___,0,$000
 dn ___,0,$E00
 dn ___,0,$000
 dn G_5,5,$000
 dn ___,0,$000
 dn ___,0,$E00
 dn ___,0,$000
 dn A_5,5,$000
 dn A#5,6,$308
 dn ___,0,$308
 dn ___,0,$308
 dn ___,0,$000
 dn ___,0,$000
 dn ___,0,$000
 dn ___,0,$000
 dn D#6,6,$000
 dn ___,0,$000
 dn ___,0,$E00
 dn ___,0,$000
 dn D_6,5,$000
 dn ___,0,$000
 dn ___,0,$000
 dn ___,0,$000
 dn A#5,6,$000
 dn ___,0,$000
 dn ___,0,$E00
 dn ___,0,$000

P48:
 dn D_7,3,$F04
 dn ___,0,$F03
 dn ___,0,$F04
 dn ___,0,$F03
 dn F#7,2,$F04
 dn ___,0,$F03
 dn ___,0,$F04
 dn ___,0,$F03
 dn D_7,3,$F04
 dn ___,0,$F03
 dn ___,0,$F04
 dn ___,0,$F03
 dn F#7,2,$F04
 dn ___,0,$F03
 dn ___,0,$F04
 dn ___,0,$F03
 dn D_7,3,$F04
 dn ___,0,$F03
 dn ___,0,$F04
 dn ___,0,$F03
 dn F#7,2,$F04
 dn ___,0,$F03
 dn ___,0,$F04
 dn ___,0,$F03
 dn D_7,3,$F04
 dn ___,0,$F03
 dn F#7,1,$F04
 dn ___,0,$F03
 dn F#7,2,$F04
 dn ___,0,$F03
 dn ___,0,$F04
 dn ___,0,$F03
 dn D_7,3,$F04
 dn ___,0,$F03
 dn ___,0,$F04
 dn ___,0,$F03
 dn F#7,2,$F04
 dn ___,0,$F03
 dn ___,0,$F04
 dn ___,0,$F03
 dn D_7,3,$F04
 dn ___,0,$F03
 dn ___,0,$F04
 dn ___,0,$F03
 dn F#7,2,$F04
 dn ___,0,$F03
 dn ___,0,$F04
 dn ___,0,$F03
 dn D_7,3,$F04
 dn ___,0,$F03
 dn ___,0,$F04
 dn ___,0,$F03
 dn F#7,2,$F04
 dn ___,0,$F03
 dn ___,0,$F04
 dn ___,0,$F03
 dn D_7,3,$F04
 dn ___,0,$F03
 dn F#7,1,$F04
 dn ___,0,$F03
 dn F#7,2,$F04
 dn ___,0,$F03
 dn ___,0,$F04
 dn ___,0,$F03

P49:
 dn G#5,5,$000
 dn ___,0,$000
 dn ___,0,$000
 dn ___,0,$000
 dn ___,0,$000
 dn ___,0,$000
 dn ___,0,$000
 dn ___,0,$000
 dn G_5,5,$000
 dn ___,0,$000
 dn ___,0,$E00
 dn ___,0,$000
 dn ___,0,$000
 dn ___,0,$000
 dn ___,0,$000
 dn ___,0,$000
 dn G#5,5,$000
 dn ___,0,$000
 dn ___,0,$000
 dn ___,0,$000
 dn C_6,5,$000
 dn ___,0,$000
 dn ___,0,$E00
 dn ___,0,$000
 dn ___,0,$000
 dn ___,0,$000
 dn ___,0,$000
 dn ___,0,$000
 dn D_6,5,$000
 dn D#6,6,$308
 dn ___,0,$308
 dn ___,0,$308
 dn ___,0,$000
 dn ___,0,$000
 dn ___,0,$000
 dn ___,0,$000
 dn D_6,5,$000
 dn ___,0,$000
 dn ___,0,$E00
 dn ___,0,$000
 dn C_6,5,$000
 dn ___,0,$000
 dn D_6,6,$000
 dn ___,0,$000
 dn ___,0,$E00
 dn ___,0,$000
 dn D#6,5,$000
 dn ___,0,$000
 dn ___,0,$000
 dn ___,0,$000
 dn ___,0,$000
 dn ___,0,$000
 dn F_6,6,$000
 dn ___,0,$000
 dn ___,0,$E00
 dn ___,0,$000
 dn G_6,5,$000
 dn ___,0,$000
 dn F_6,6,$000
 dn ___,0,$000
 dn ___,0,$E00
 dn ___,0,$000
 dn A_6,5,$000
 dn A#6,6,$308

P50:
 dn ___,0,$308
 dn ___,0,$300
 dn ___,0,$300
 dn ___,0,$000
 dn ___,0,$000
 dn ___,0,$000
 dn ___,0,$000
 dn ___,0,$000
 dn ___,0,$000
 dn ___,0,$000
 dn ___,0,$000
 dn ___,0,$000
 dn ___,0,$000
 dn ___,0,$000
 dn G#6,6,$000
 dn G_6,6,$000
 dn F_6,5,$000
 dn ___,0,$000
 dn ___,0,$000
 dn ___,0,$000
 dn ___,0,$000
 dn ___,0,$000
 dn F_6,6,$000
 dn ___,0,$000
 dn ___,0,$000
 dn ___,0,$000
 dn ___,0,$000
 dn ___,0,$000
 dn ___,0,$000
 dn ___,0,$000
 dn ___,0,$208
 dn ___,0,$208
 dn ___,0,$C00
 dn ___,0,$000
 dn ___,0,$000
 dn ___,0,$000
 dn ___,0,$000
 dn ___,0,$000
 dn ___,0,$000
 dn ___,0,$000
 dn ___,0,$000
 dn ___,0,$000
 dn ___,0,$000
 dn ___,0,$000
 dn ___,0,$000
 dn ___,0,$000
 dn ___,0,$000
 dn ___,0,$000
 dn ___,0,$000
 dn ___,0,$000
 dn ___,0,$000
 dn ___,0,$000
 dn ___,0,$000
 dn ___,0,$000
 dn ___,0,$000
 dn ___,0,$000
 dn ___,0,$000
 dn ___,0,$000
 dn ___,0,$000
 dn ___,0,$000
 dn ___,0,$000
 dn ___,0,$000
 dn ___,0,$000
 dn ___,0,$000

P40:
 dn ___,0,$000
 dn ___,0,$000
 dn ___,0,$000
 dn ___,0,$000
 dn ___,0,$220
 dn ___,0,$220
 dn ___,0,$E00
 dn ___,0,$000
 dn ___,0,$000
 dn ___,0,$000
 dn ___,0,$000
 dn ___,0,$000
 dn ___,0,$000
 dn ___,0,$000
 dn ___,0,$000
 dn ___,0,$000
 dn ___,0,$000
 dn ___,0,$000
 dn ___,0,$000
 dn ___,0,$000
 dn ___,0,$000
 dn ___,0,$000
 dn ___,0,$000
 dn ___,0,$000
 dn ___,0,$000
 dn ___,0,$000
 dn ___,0,$000
 dn ___,0,$000
 dn C#6,5,$000
 dn D#6,6,$308
 dn ___,0,$308
 dn ___,0,$308
 dn ___,0,$000
 dn ___,0,$000
 dn ___,0,$000
 dn ___,0,$000
 dn C#6,5,$000
 dn ___,0,$000
 dn ___,0,$E00
 dn ___,0,$000
 dn ___,0,$000
 dn ___,0,$000
 dn ___,0,$000
 dn ___,0,$000
 dn A#5,5,$000
 dn C_6,6,$308
 dn ___,0,$308
 dn ___,0,$308
 dn ___,0,$000
 dn ___,0,$000
 dn ___,0,$000
 dn ___,0,$000
 dn ___,0,$000
 dn ___,0,$000
 dn C#6,6,$000
 dn C_6,6,$000
 dn A#5,5,$000
 dn ___,0,$F03
 dn ___,0,$000
 dn ___,0,$F03
 dn ___,0,$E00
 dn ___,0,$000
 dn ___,0,$000
 dn ___,0,$000

P41:
 dn G#4,1,$C0C
 dn C_5,1,$C0C
 dn D_5,1,$C0B
 dn F_5,2,$C0B
 dn G#4,2,$C0A
 dn C_5,2,$C0A
 dn D_5,3,$C09
 dn F_5,3,$C09
 dn G#4,3,$C08
 dn C_5,4,$C08
 dn D_5,4,$C07
 dn F_5,4,$C07
 dn G#4,4,$C06
 dn C_5,1,$C06
 dn D_5,1,$C05
 dn F_5,1,$C05
 dn G#4,1,$C0C
 dn C_5,1,$C0C
 dn C#5,1,$C0B
 dn F_5,2,$C0B
 dn G#4,2,$C0A
 dn C_5,2,$C0A
 dn C#5,3,$C09
 dn F_5,3,$C09
 dn G#4,3,$C08
 dn C_5,4,$C08
 dn C#5,4,$C07
 dn F_5,4,$C07
 dn G#4,4,$C06
 dn C_5,1,$C06
 dn C#5,1,$C05
 dn F_5,1,$C05
 dn G#4,1,$C0C
 dn C_5,1,$C0C
 dn C#5,1,$C0B
 dn F_5,2,$C0B
 dn G#4,2,$C0A
 dn C_5,2,$C0A
 dn C#5,3,$C09
 dn F_5,3,$C09
 dn G#4,3,$C08
 dn C_5,4,$C08
 dn C#5,4,$C07
 dn F_5,4,$C07
 dn G#4,4,$C06
 dn C_5,1,$C06
 dn C#5,1,$C05
 dn F_5,1,$C05
 dn G_4,1,$C0C
 dn A#4,1,$C0C
 dn C#5,1,$C0B
 dn E_5,2,$C0B
 dn G_4,2,$C0A
 dn A#4,2,$C0A
 dn C#5,3,$C09
 dn E_5,3,$C09
 dn G_4,3,$C08
 dn A#4,4,$C08
 dn C#5,4,$C07
 dn E_5,4,$C07
 dn G_4,4,$C06
 dn A#4,1,$C06
 dn C#5,1,$C05
 dn E_5,1,$C05

P51:
 dn D_7,3,$F04
 dn ___,0,$F03
 dn ___,0,$F04
 dn ___,0,$F03
 dn F#7,2,$F04
 dn ___,0,$F03
 dn ___,0,$F04
 dn ___,0,$F03
 dn D_7,3,$F04
 dn ___,0,$F03
 dn ___,0,$F04
 dn ___,0,$F03
 dn F#7,2,$F04
 dn ___,0,$F03
 dn ___,0,$F04
 dn ___,0,$F03
 dn D_7,3,$F04
 dn ___,0,$F03
 dn ___,0,$F04
 dn ___,0,$F03
 dn F#7,2,$F04
 dn ___,0,$F03
 dn ___,0,$F04
 dn ___,0,$F03
 dn D_7,3,$F04
 dn ___,0,$F03
 dn F#7,1,$F04
 dn ___,0,$F03
 dn F#7,2,$F04
 dn ___,0,$F03
 dn ___,0,$F04
 dn ___,0,$F03
 dn D_7,4,$F04
 dn ___,0,$F03
 dn ___,0,$F04
 dn ___,0,$F03
 dn ___,0,$F04
 dn ___,0,$F03
 dn ___,0,$F04
 dn ___,0,$F03
 dn ___,0,$F04
 dn ___,0,$F03
 dn ___,0,$F04
 dn ___,0,$F03
 dn ___,0,$F04
 dn ___,0,$F03
 dn ___,0,$F04
 dn ___,0,$F03
 dn ___,0,$F04
 dn ___,0,$F03
 dn ___,0,$F04
 dn ___,0,$F03
 dn ___,0,$F04
 dn ___,0,$F03
 dn ___,0,$F04
 dn ___,0,$F03
 dn ___,0,$F04
 dn ___,0,$F03
 dn ___,0,$F04
 dn ___,0,$F03
 dn ___,0,$F04
 dn ___,0,$F03
 dn ___,0,$F04
 dn ___,0,$F03

P52:
 dn ___,0,$F04
 dn ___,0,$F03
 dn ___,0,$F04
 dn ___,0,$F03
 dn ___,0,$F04
 dn ___,0,$F03
 dn ___,0,$F04
 dn ___,0,$F03
 dn ___,0,$F04
 dn ___,0,$F03
 dn ___,0,$F04
 dn ___,0,$F03
 dn ___,0,$F04
 dn ___,0,$F03
 dn ___,0,$F04
 dn ___,0,$F03
 dn E_7,5,$F04
 dn ___,0,$F03
 dn G#7,5,$F04
 dn ___,0,$F03
 dn ___,0,$F04
 dn ___,0,$F03
 dn E_7,5,$F04
 dn ___,0,$F03
 dn G#7,5,$F04
 dn ___,0,$F03
 dn ___,0,$F04
 dn ___,0,$F03
 dn E_7,5,$F04
 dn ___,0,$F03
 dn G#7,5,$F04
 dn ___,0,$F03
 dn ___,0,$F04
 dn ___,0,$F03
 dn E_7,5,$F04
 dn ___,0,$F03
 dn ___,0,$F04
 dn ___,0,$F03
 dn ___,0,$F04
 dn ___,0,$F03
 dn ___,0,$F04
 dn ___,0,$F03
 dn ___,0,$F04
 dn ___,0,$F03
 dn ___,0,$F04
 dn ___,0,$F03
 dn ___,0,$F04
 dn ___,0,$F03
 dn E_7,5,$F04
 dn ___,0,$F03
 dn G#7,5,$F04
 dn ___,0,$F03
 dn ___,0,$F04
 dn ___,0,$F03
 dn E_7,5,$F04
 dn ___,0,$F03
 dn G#7,5,$F04
 dn ___,0,$F03
 dn ___,0,$F04
 dn ___,0,$F03
 dn E_7,5,$F04
 dn ___,0,$F03
 dn G#7,5,$F04
 dn ___,0,$F03

P53:
 dn A_4,8,$C0C
 dn C_5,8,$C0C
 dn E_5,8,$C0B
 dn F_5,9,$C0B
 dn A_4,9,$C0A
 dn C_5,9,$C0A
 dn E_5,10,$C09
 dn F_5,10,$C09
 dn A_4,10,$C08
 dn C_5,11,$C08
 dn E_5,11,$C07
 dn F_5,11,$C07
 dn A_4,11,$C06
 dn C_5,8,$C06
 dn E_5,8,$C05
 dn F_5,8,$C05
 dn A_4,8,$C04
 dn C_5,8,$C04
 dn E_5,8,$C03
 dn F_5,9,$C03
 dn A_4,9,$C02
 dn C_5,9,$C02
 dn E_5,10,$C01
 dn F_5,10,$C01
 dn A_4,8,$C0C
 dn C_5,8,$C0C
 dn E_5,8,$C0B
 dn F_5,9,$C0B
 dn A_4,9,$C0A
 dn C_5,9,$C0A
 dn E_5,10,$C09
 dn F_5,10,$C09
 dn A_4,8,$C0C
 dn B_4,8,$C0C
 dn D_5,8,$C0B
 dn F_5,8,$C0B
 dn A_4,9,$C0A
 dn B_4,9,$C0A
 dn D_5,10,$C09
 dn F_5,10,$C09
 dn A_4,10,$C08
 dn B_4,11,$C08
 dn D_5,11,$C07
 dn F_5,11,$C07
 dn A_4,11,$C06
 dn B_4,8,$C06
 dn D_5,8,$C05
 dn F_5,8,$C05
 dn A_4,8,$C04
 dn B_4,8,$C04
 dn D_5,8,$C03
 dn F_5,9,$C03
 dn A_4,9,$C02
 dn B_4,9,$C02
 dn D_5,10,$C01
 dn F_5,10,$C01
 dn A_4,8,$C0C
 dn B_4,8,$C0C
 dn D_5,8,$C0B
 dn F_5,8,$C0B
 dn A_4,9,$C0A
 dn B_4,9,$C0A
 dn D_5,10,$C09
 dn F_5,10,$C09

P54:
 dn G_4,8,$C0C
 dn A_4,8,$C0C
 dn C_5,8,$C0B
 dn E_5,9,$C0B
 dn G_4,9,$C0A
 dn A_4,9,$C0A
 dn C_5,10,$C09
 dn E_5,10,$C09
 dn G_4,10,$C08
 dn A_4,11,$C08
 dn C_5,11,$C07
 dn E_5,11,$C07
 dn G_4,11,$C06
 dn A_4,8,$C06
 dn C_5,8,$C05
 dn E_5,8,$C05
 dn G_4,8,$C04
 dn A_4,8,$C04
 dn C_5,8,$C03
 dn E_5,9,$C03
 dn G_4,9,$C02
 dn A_4,9,$C02
 dn C_5,10,$C01
 dn E_5,10,$C01
 dn G_4,8,$C0C
 dn A_4,8,$C0C
 dn C_5,8,$C0B
 dn E_5,9,$C0B
 dn G_4,9,$C0A
 dn A_4,9,$C0A
 dn C_5,10,$C09
 dn E_5,10,$C09
 dn F_4,8,$C0C
 dn A_4,8,$C0C
 dn C_5,8,$C0B
 dn E_5,8,$C0B
 dn F_4,9,$C0A
 dn A_4,9,$C0A
 dn C_5,10,$C09
 dn E_5,10,$C09
 dn F_4,10,$C08
 dn A_4,11,$C08
 dn C_5,11,$C07
 dn E_5,11,$C07
 dn F_4,11,$C06
 dn A_4,8,$C06
 dn C_5,8,$C05
 dn E_5,8,$C05
 dn F#4,8,$C0C
 dn A_4,8,$C0C
 dn C_5,8,$C0B
 dn E_5,8,$C0B
 dn F#4,9,$C0A
 dn A_4,9,$C0A
 dn C_5,10,$C09
 dn E_5,10,$C09
 dn F#4,8,$C0C
 dn A_4,8,$C0C
 dn C_5,8,$C0B
 dn D#5,8,$C0B
 dn F#4,9,$C0A
 dn A_4,9,$C0A
 dn C_5,10,$C09
 dn D#5,10,$C09

P55:
 dn F_4,8,$C0C
 dn G_4,8,$C0C
 dn A#4,8,$C0B
 dn D_5,9,$C0B
 dn F_4,9,$C0A
 dn G_4,9,$C0A
 dn A#4,10,$C09
 dn D_5,10,$C09
 dn F_4,10,$C08
 dn G_4,11,$C08
 dn A#4,11,$C07
 dn D_5,11,$C07
 dn F_4,11,$C06
 dn G_4,8,$C06
 dn A#4,8,$C05
 dn D_5,8,$C05
 dn F_4,8,$C04
 dn G_4,8,$C04
 dn A#4,8,$C03
 dn D_5,9,$C03
 dn F_4,9,$C02
 dn G_4,9,$C02
 dn A#4,10,$C01
 dn D_5,10,$C01
 dn F_4,8,$C0C
 dn G_4,8,$C0C
 dn A#4,8,$C0B
 dn D_5,9,$C0B
 dn F_4,9,$C0A
 dn G_4,9,$C0A
 dn A#4,10,$C09
 dn D_5,10,$C09
 dn F#4,8,$C0C
 dn A#4,8,$C0C
 dn C#5,8,$C0B
 dn F_5,8,$C0B
 dn F#4,9,$C0A
 dn A#4,9,$C0A
 dn C#5,10,$C09
 dn F_5,10,$C09
 dn F#4,10,$C08
 dn A#4,11,$C08
 dn C#5,11,$C07
 dn F_5,11,$C07
 dn F#4,11,$C06
 dn A#4,8,$C06
 dn C#5,8,$C05
 dn F_5,8,$C05
 dn F#4,8,$C0C
 dn A#4,8,$C0C
 dn C#5,8,$C0B
 dn F_5,8,$C0B
 dn F#4,9,$C0A
 dn A#4,9,$C0A
 dn C#5,10,$C09
 dn F_5,10,$C09
 dn A#4,8,$C0C
 dn C#5,8,$C0C
 dn E_5,8,$C0B
 dn A_5,8,$C0B
 dn A#4,9,$C0A
 dn C#5,9,$C0A
 dn E_5,10,$C09
 dn A_5,10,$C09

P56:
 dn A_4,8,$C0C
 dn C#5,8,$C0C
 dn E_5,8,$C0B
 dn G_5,9,$C0B
 dn A_4,9,$C0A
 dn C#5,9,$C0A
 dn E_5,10,$C09
 dn G_5,10,$C09
 dn A_4,10,$C08
 dn C#5,11,$C08
 dn E_5,11,$C07
 dn G_5,11,$C07
 dn A_4,11,$C06
 dn C#5,8,$C06
 dn E_5,8,$C05
 dn G_5,8,$C05
 dn A_4,8,$C04
 dn C#5,8,$C04
 dn E_5,8,$C03
 dn G_5,9,$C03
 dn A_4,9,$C02
 dn C#5,9,$C02
 dn E_5,10,$C01
 dn G_5,10,$C01
 dn ___,0,$C00
 dn ___,0,$000
 dn ___,0,$000
 dn ___,0,$000
 dn ___,0,$000
 dn ___,0,$000
 dn ___,0,$000
 dn ___,0,$000
 dn ___,0,$000
 dn ___,0,$000
 dn ___,0,$000
 dn ___,0,$000
 dn ___,0,$000
 dn ___,0,$000
 dn ___,0,$000
 dn ___,0,$000
 dn ___,0,$000
 dn ___,0,$000
 dn ___,0,$000
 dn ___,0,$000
 dn ___,0,$000
 dn ___,0,$000
 dn ___,0,$000
 dn ___,0,$000
 dn ___,0,$000
 dn ___,0,$000
 dn ___,0,$000
 dn ___,0,$000
 dn ___,0,$000
 dn ___,0,$000
 dn ___,0,$000
 dn ___,0,$000
 dn ___,0,$000
 dn ___,0,$000
 dn ___,0,$000
 dn ___,0,$000
 dn ___,0,$000
 dn ___,0,$000
 dn ___,0,$000
 dn ___,0,$000

P58:
 dn F#5,9,$2FF
 dn ___,0,$2FF
 dn A_4,8,$000
 dn ___,0,$E00
 dn A_4,7,$000
 dn ___,0,$E00
 dn A_4,7,$000
 dn ___,0,$E00
 dn F#5,9,$2FF
 dn ___,0,$2FF
 dn A_4,6,$000
 dn ___,0,$E00
 dn A_4,5,$000
 dn ___,0,$E00
 dn A_4,5,$000
 dn ___,0,$E00
 dn F#5,9,$2FF
 dn ___,0,$2FF
 dn A_4,4,$000
 dn ___,0,$E00
 dn A_4,4,$000
 dn ___,0,$E00
 dn A_4,3,$000
 dn ___,0,$E00
 dn F#5,9,$2FF
 dn ___,0,$2FF
 dn A_4,2,$000
 dn ___,0,$E00
 dn A_6,1,$000
 dn ___,0,$000
 dn A_5,1,$000
 dn ___,0,$E00
 dn F#5,9,$2FF
 dn ___,0,$2FF
 dn A_3,8,$000
 dn ___,0,$E00
 dn A_4,7,$000
 dn ___,0,$E00
 dn A_3,7,$000
 dn ___,0,$E00
 dn F#5,9,$2FF
 dn ___,0,$2FF
 dn A_3,6,$000
 dn ___,0,$E00
 dn A_4,5,$000
 dn ___,0,$E00
 dn A_3,5,$000
 dn ___,0,$E00
 dn F#5,9,$2FF
 dn ___,0,$2FF
 dn A_3,4,$000
 dn ___,0,$E00
 dn A_4,4,$000
 dn ___,0,$E00
 dn A_3,3,$000
 dn ___,0,$E00
 dn F#5,9,$2FF
 dn ___,0,$2FF
 dn F#5,9,$2FF
 dn ___,0,$2FF
 dn F#5,9,$2FF
 dn ___,0,$2FF
 dn F#5,9,$2FF
 dn ___,0,$2FF

P59:
 dn D_7,4,$F04
 dn ___,0,$F03
 dn ___,0,$F04
 dn ___,0,$F03
 dn ___,0,$F04
 dn ___,0,$F03
 dn ___,0,$F04
 dn ___,0,$F03
 dn ___,0,$F04
 dn ___,0,$F03
 dn ___,0,$F04
 dn ___,0,$F03
 dn ___,0,$F04
 dn ___,0,$F03
 dn ___,0,$F04
 dn ___,0,$F03
 dn ___,0,$F04
 dn ___,0,$F03
 dn ___,0,$F04
 dn ___,0,$F03
 dn ___,0,$F04
 dn ___,0,$F03
 dn ___,0,$F04
 dn ___,0,$F03
 dn ___,0,$F04
 dn ___,0,$F03
 dn ___,0,$F04
 dn ___,0,$F03
 dn ___,0,$F04
 dn ___,0,$F03
 dn ___,0,$F04
 dn ___,0,$F03
 dn ___,0,$F04
 dn ___,0,$F03
 dn ___,0,$F04
 dn ___,0,$F03
 dn ___,0,$F04
 dn ___,0,$F03
 dn ___,0,$F04
 dn ___,0,$F03
 dn ___,0,$F04
 dn ___,0,$F03
 dn ___,0,$F04
 dn ___,0,$F03
 dn ___,0,$F04
 dn ___,0,$F03
 dn ___,0,$F04
 dn ___,0,$F03
 dn ___,0,$F04
 dn ___,0,$F03
 dn ___,0,$F04
 dn ___,0,$F03
 dn ___,0,$F04
 dn ___,0,$F03
 dn ___,0,$F04
 dn ___,0,$F03
 dn ___,0,$F04
 dn ___,0,$F03
 dn ___,0,$F04
 dn ___,0,$F03
 dn ___,0,$F04
 dn ___,0,$F03
 dn ___,0,$F04
 dn ___,0,$F03

P61:
 dn F_4,8,$C0C
 dn G_4,8,$C0C
 dn A#4,8,$C0B
 dn D_5,9,$C0B
 dn F_4,9,$C0A
 dn G_4,9,$C0A
 dn A#4,10,$C09
 dn D_5,10,$C09
 dn F_4,10,$C08
 dn G_4,11,$C08
 dn A#4,11,$C07
 dn D_5,11,$C07
 dn F_4,11,$C06
 dn G_4,8,$C06
 dn A#4,8,$C05
 dn D_5,8,$C05
 dn F_4,8,$C04
 dn G_4,8,$C04
 dn A#4,8,$C03
 dn D_5,9,$C03
 dn F_4,9,$C02
 dn G_4,9,$C02
 dn A#4,10,$C01
 dn D_5,10,$C01
 dn F_4,8,$C0C
 dn G_4,8,$C0C
 dn A#4,8,$C0B
 dn D_5,9,$C0B
 dn F_4,9,$C0A
 dn G_4,9,$C0A
 dn A#4,10,$C09
 dn D_5,10,$C09
 dn F#4,8,$C0C
 dn A#4,8,$C0C
 dn C#5,8,$C0B
 dn F_5,8,$C0B
 dn F#4,9,$C0A
 dn A#4,9,$C0A
 dn C#5,10,$C09
 dn F_5,10,$C09
 dn F#4,10,$C08
 dn A#4,11,$C08
 dn C#5,11,$C07
 dn F_5,11,$C07
 dn F#4,11,$C06
 dn A#4,8,$C06
 dn C#5,8,$C05
 dn F_5,8,$C05
 dn F#4,8,$C0C
 dn A#4,8,$C0C
 dn C#5,8,$C0B
 dn F_5,8,$C0B
 dn F#4,9,$C0A
 dn A#4,9,$C0A
 dn C#5,10,$C09
 dn F_5,10,$C09
 dn F#4,8,$C0C
 dn A#4,8,$C0C
 dn C#5,8,$C0B
 dn G_5,8,$C0B
 dn F#4,9,$C0A
 dn A#4,9,$C0A
 dn C#5,10,$C09
 dn G_5,10,$C09

P62:
 dn G_4,8,$C0C
 dn A#4,8,$C0C
 dn C#5,8,$C0B
 dn E_5,9,$C0B
 dn G_4,9,$C0A
 dn A#4,9,$C0A
 dn C#5,10,$C09
 dn E_5,10,$C09
 dn G_4,10,$C08
 dn A#4,11,$C08
 dn C#5,11,$C07
 dn E_5,11,$C07
 dn G_4,11,$C06
 dn A#4,8,$C06
 dn C#5,8,$C05
 dn E_5,8,$C05
 dn G_4,8,$C04
 dn A#4,8,$C04
 dn C#5,8,$C03
 dn E_5,9,$C03
 dn G_4,9,$C02
 dn A#4,9,$C02
 dn C#5,10,$C01
 dn E_5,10,$C01
 dn G_4,8,$C0C
 dn A#4,8,$C0C
 dn C#5,8,$C0B
 dn E_5,9,$C0B
 dn G_4,9,$C0A
 dn A#4,9,$C0A
 dn C#5,10,$C09
 dn E_5,10,$C09
 dn G_4,8,$C0C
 dn A_4,8,$C0C
 dn C#5,8,$C0B
 dn E_5,8,$C0B
 dn G_4,9,$C0A
 dn A_4,9,$C0A
 dn C#5,10,$C09
 dn E_5,10,$C09
 dn G_4,10,$C08
 dn A_4,11,$C08
 dn C#5,11,$C07
 dn E_5,11,$C07
 dn G_4,11,$C06
 dn A_4,8,$C06
 dn C#5,8,$C05
 dn E_5,8,$C05
 dn G_4,8,$C04
 dn A_4,8,$C04
 dn C#5,8,$C03
 dn E_5,9,$C03
 dn G_4,9,$C02
 dn A_4,9,$C02
 dn C#5,10,$C01
 dn E_5,10,$C01
 dn ___,0,$E00
 dn ___,0,$000
 dn ___,0,$000
 dn ___,0,$000
 dn ___,0,$000
 dn ___,0,$000
 dn ___,0,$000
 dn ___,0,$000

P63:
 dn G_5,7,$000
 dn ___,0,$000
 dn A_5,7,$000
 dn ___,0,$000
 dn ___,0,$000
 dn ___,0,$000
 dn E_6,7,$000
 dn ___,0,$000
 dn ___,0,$000
 dn ___,0,$000
 dn G_5,7,$000
 dn ___,0,$000
 dn A_5,7,$000
 dn ___,0,$000
 dn ___,0,$000
 dn ___,0,$000
 dn E_6,7,$000
 dn ___,0,$000
 dn G_5,7,$000
 dn ___,0,$000
 dn ___,0,$000
 dn ___,0,$000
 dn A_5,7,$000
 dn ___,0,$000
 dn ___,0,$000
 dn ___,0,$000
 dn E_6,7,$000
 dn ___,0,$000
 dn G_5,7,$000
 dn ___,0,$000
 dn ___,0,$000
 dn ___,0,$000
 dn A_5,7,$000
 dn ___,0,$000
 dn C#6,7,$000
 dn ___,0,$000
 dn ___,0,$000
 dn ___,0,$000
 dn G_5,7,$000
 dn ___,0,$000
 dn ___,0,$000
 dn ___,0,$000
 dn A_5,7,$000
 dn ___,0,$000
 dn C#6,7,$000
 dn ___,0,$000
 dn ___,0,$000
 dn ___,0,$000
 dn G_5,7,$000
 dn ___,0,$000
 dn A_5,7,$000
 dn ___,0,$000
 dn ___,0,$000
 dn ___,0,$000
 dn C#6,7,$000
 dn ___,0,$000
 dn ___,0,$000
 dn ___,0,$000
 dn G_5,7,$000
 dn ___,0,$000
 dn G#5,7,$000
 dn ___,0,$000
 dn ___,0,$000
 dn ___,0,$000

itSquareSP5:
 dn 48,0,$000
 dn 36,0,$000
 dn ___,0,$000
 dn ___,0,$000
 dn ___,0,$000
 dn ___,0,$000
 dn ___,0,$000
 dn ___,0,$000
 dn ___,0,$000
 dn ___,0,$000
 dn ___,0,$000
 dn ___,0,$000
 dn ___,0,$000
 dn ___,0,$000
 dn ___,0,$000
 dn ___,0,$000
 dn ___,0,$000
 dn ___,0,$000
 dn ___,0,$000
 dn ___,0,$000
 dn ___,0,$000
 dn ___,0,$000
 dn ___,0,$000
 dn ___,0,$000
 dn ___,0,$000
 dn ___,0,$000
 dn ___,0,$000
 dn ___,0,$000
 dn ___,0,$000
 dn ___,0,$000
 dn ___,0,$000
 dn ___,1,$000

itSquareSP7:
 dn 36,0,$000
 dn 55,0,$000
 dn 48,1,$000
 dn ___,0,$000
 dn ___,0,$000
 dn ___,0,$000
 dn ___,0,$000
 dn ___,0,$000
 dn ___,0,$000
 dn ___,0,$000
 dn ___,0,$000
 dn ___,0,$000
 dn ___,0,$000
 dn ___,0,$000
 dn ___,0,$000
 dn ___,0,$000
 dn ___,0,$000
 dn ___,0,$000
 dn ___,0,$000
 dn ___,0,$000
 dn ___,0,$000
 dn ___,0,$000
 dn ___,0,$000
 dn ___,0,$000
 dn ___,0,$000
 dn ___,0,$000
 dn ___,0,$000
 dn ___,0,$000
 dn ___,0,$000
 dn ___,0,$000
 dn ___,0,$000
 dn ___,1,$000

itSquareSP8:
 dn 48,0,$000
 dn 48,0,$000
 dn 36,0,$000
 dn ___,0,$000
 dn ___,0,$000
 dn ___,0,$000
 dn ___,0,$000
 dn ___,0,$000
 dn ___,0,$000
 dn ___,0,$000
 dn ___,0,$000
 dn ___,0,$000
 dn ___,0,$000
 dn ___,0,$000
 dn ___,0,$000
 dn ___,0,$000
 dn ___,0,$000
 dn ___,0,$000
 dn ___,0,$000
 dn ___,0,$000
 dn ___,0,$000
 dn ___,0,$000
 dn ___,0,$000
 dn ___,0,$000
 dn ___,0,$000
 dn ___,0,$000
 dn ___,0,$000
 dn ___,0,$000
 dn ___,0,$000
 dn ___,0,$000
 dn ___,0,$000
 dn ___,1,$000

itSquareSP9:
 dn 48,0,$000
 dn 48,0,$000
 dn 36,0,$000
 dn ___,0,$000
 dn ___,0,$000
 dn ___,0,$000
 dn ___,0,$000
 dn ___,0,$000
 dn ___,0,$000
 dn ___,0,$000
 dn ___,0,$000
 dn ___,0,$000
 dn ___,0,$000
 dn ___,0,$000
 dn ___,0,$000
 dn ___,0,$000
 dn ___,0,$000
 dn ___,0,$000
 dn ___,0,$000
 dn ___,0,$000
 dn ___,0,$000
 dn ___,0,$000
 dn ___,0,$000
 dn ___,0,$000
 dn ___,0,$000
 dn ___,0,$000
 dn ___,0,$000
 dn ___,0,$000
 dn ___,0,$000
 dn ___,0,$000
 dn ___,0,$000
 dn ___,1,$000

itSquareSP10:
 dn 48,0,$000
 dn 48,0,$000
 dn 36,0,$000
 dn ___,0,$000
 dn ___,0,$000
 dn ___,0,$000
 dn ___,0,$000
 dn ___,0,$000
 dn ___,0,$000
 dn ___,0,$000
 dn ___,0,$000
 dn ___,0,$000
 dn ___,0,$000
 dn ___,0,$000
 dn ___,0,$000
 dn ___,0,$000
 dn ___,0,$000
 dn ___,0,$000
 dn ___,0,$000
 dn ___,0,$000
 dn ___,0,$000
 dn ___,0,$000
 dn ___,0,$000
 dn ___,0,$000
 dn ___,0,$000
 dn ___,0,$000
 dn ___,0,$000
 dn ___,0,$000
 dn ___,0,$000
 dn ___,0,$000
 dn ___,0,$000
 dn ___,1,$000

itSquareSP11:
 dn 48,0,$000
 dn 48,0,$000
 dn 36,0,$000
 dn ___,0,$000
 dn ___,0,$000
 dn ___,0,$000
 dn ___,0,$000
 dn ___,0,$000
 dn ___,0,$000
 dn ___,0,$000
 dn ___,0,$000
 dn ___,0,$000
 dn ___,0,$000
 dn ___,0,$000
 dn ___,0,$000
 dn ___,0,$000
 dn ___,0,$000
 dn ___,0,$000
 dn ___,0,$000
 dn ___,0,$000
 dn ___,0,$000
 dn ___,0,$000
 dn ___,0,$000
 dn ___,0,$000
 dn ___,0,$000
 dn ___,0,$000
 dn ___,0,$000
 dn ___,0,$000
 dn ___,0,$000
 dn ___,0,$000
 dn ___,0,$000
 dn ___,1,$000

itNoiseSP1:
 dn ___,0,$000
 dn 36,0,$000
 dn 36,0,$000
 dn 36,4,$000
 dn 36,0,$000
 dn 36,0,$000
 dn 36,0,$000
 dn ___,0,$000
 dn ___,0,$000
 dn ___,0,$000
 dn ___,0,$000
 dn ___,0,$000
 dn ___,0,$000
 dn ___,0,$000
 dn ___,0,$000
 dn ___,0,$000
 dn ___,0,$000
 dn ___,0,$000
 dn ___,0,$000
 dn ___,0,$000
 dn ___,0,$000
 dn ___,0,$000
 dn ___,0,$000
 dn ___,0,$000
 dn ___,0,$000
 dn ___,0,$000
 dn ___,0,$000
 dn ___,0,$000
 dn ___,0,$000
 dn ___,0,$000
 dn ___,0,$000
 dn ___,1,$000

itNoiseSP2:
 dn ___,0,$000
 dn 36,0,$000
 dn 36,0,$000
 dn 36,4,$000
 dn 36,0,$000
 dn 36,0,$000
 dn 36,0,$000
 dn ___,0,$000
 dn ___,0,$000
 dn ___,0,$000
 dn ___,0,$000
 dn ___,0,$000
 dn ___,0,$000
 dn ___,0,$000
 dn ___,0,$000
 dn ___,0,$000
 dn ___,0,$000
 dn ___,0,$000
 dn ___,0,$000
 dn ___,0,$000
 dn ___,0,$000
 dn ___,0,$000
 dn ___,0,$000
 dn ___,0,$000
 dn ___,0,$000
 dn ___,0,$000
 dn ___,0,$000
 dn ___,0,$000
 dn ___,0,$000
 dn ___,0,$000
 dn ___,0,$000
 dn ___,1,$000

itNoiseSP3:
 dn 36,0,$000
 dn 36,0,$000
 dn 30,0,$000
 dn 30,0,$000
 dn 36,0,$000
 dn 36,0,$000
 dn 30,0,$000
 dn 30,0,$000
 dn 36,0,$000
 dn 36,0,$000
 dn 30,0,$000
 dn 30,0,$000
 dn 36,0,$000
 dn 36,0,$000
 dn 30,0,$000
 dn 30,0,$000
 dn 36,0,$000
 dn 36,0,$000
 dn 30,0,$000
 dn 30,0,$000
 dn 36,0,$000
 dn 36,0,$000
 dn 30,0,$000
 dn 30,0,$000
 dn 36,0,$000
 dn 36,0,$000
 dn 30,0,$000
 dn 30,0,$000
 dn 36,0,$000
 dn 36,0,$000
 dn 30,0,$000
 dn 30,1,$000

itNoiseSP4:
 dn 36,0,$000
 dn ___,0,$000
 dn ___,0,$000
 dn ___,0,$000
 dn 35,0,$000
 dn ___,0,$000
 dn ___,0,$000
 dn ___,0,$000
 dn 34,0,$000
 dn ___,0,$000
 dn ___,0,$000
 dn ___,0,$000
 dn 33,0,$000
 dn ___,0,$000
 dn ___,0,$000
 dn ___,0,$000
 dn 32,0,$000
 dn ___,0,$000
 dn ___,0,$000
 dn ___,0,$000
 dn 31,0,$000
 dn ___,0,$000
 dn ___,0,$000
 dn ___,0,$000
 dn 30,0,$000
 dn ___,0,$000
 dn ___,0,$000
 dn ___,0,$000
 dn 29,0,$000
 dn ___,0,$000
 dn ___,0,$000
 dn ___,21,$000

itNoiseSP5:
 dn ___,0,$000
 dn 36,0,$000
 dn 36,0,$000
 dn 36,4,$000
 dn 36,0,$000
 dn 36,0,$000
 dn 36,0,$000
 dn ___,0,$000
 dn ___,0,$000
 dn ___,0,$000
 dn ___,0,$000
 dn ___,0,$000
 dn ___,0,$000
 dn ___,0,$000
 dn ___,0,$000
 dn ___,0,$000
 dn ___,0,$000
 dn ___,0,$000
 dn ___,0,$000
 dn ___,0,$000
 dn ___,0,$000
 dn ___,0,$000
 dn ___,0,$000
 dn ___,0,$000
 dn ___,0,$000
 dn ___,0,$000
 dn ___,0,$000
 dn ___,0,$000
 dn ___,0,$000
 dn ___,0,$000
 dn ___,0,$000
 dn ___,1,$000

duty_instruments:
itSquareinst1:
db 8
db 0
db 240
dw 0
db 128

itSquareinst2:
db 8
db 64
db 240
dw 0
db 128

itSquareinst3:
db 8
db 128
db 240
dw 0
db 128

itSquareinst4:
db 8
db 192
db 240
dw 0
db 128

itSquareinst5:
db 8
db 128
db 240
dw itSquareSP5
db 128

itSquareinst6:
db 8
db 128
db 240
dw 0
db 128

itSquareinst7:
db 8
db 179
db 209
dw itSquareSP7
db 192

itSquareinst8:
db 8
db 0
db 240
dw itSquareSP8
db 128

itSquareinst9:
db 8
db 64
db 240
dw itSquareSP9
db 128

itSquareinst10:
db 8
db 128
db 240
dw itSquareSP10
db 128

itSquareinst11:
db 8
db 192
db 240
dw itSquareSP11
db 128



wave_instruments:
itWaveinst1:
db 0
db 32
db 0
dw 0
db 128

itWaveinst2:
db 0
db 32
db 1
dw 0
db 128

itWaveinst3:
db 0
db 32
db 2
dw 0
db 128

itWaveinst4:
db 0
db 32
db 3
dw 0
db 128

itWaveinst5:
db 0
db 32
db 4
dw 0
db 128

itWaveinst6:
db 0
db 32
db 5
dw 0
db 128

itWaveinst7:
db 0
db 32
db 6
dw 0
db 128

itWaveinst8:
db 0
db 32
db 7
dw 0
db 128

itWaveinst9:
db 0
db 32
db 8
dw 0
db 128



noise_instruments:
itNoiseinst1:
db 144
dw itNoiseSP1
db 124
ds 2

itNoiseinst2:
db 144
dw itNoiseSP2
db 115
ds 2

itNoiseinst3:
db 241
dw itNoiseSP3
db 0
ds 2

itNoiseinst4:
db 247
dw itNoiseSP4
db 0
ds 2

itNoiseinst5:
db 112
dw itNoiseSP5
db 240
ds 2



routines:
__hUGE_Routine_0:

__end_hUGE_Routine_0:
ret

__hUGE_Routine_1:

__end_hUGE_Routine_1:
ret

__hUGE_Routine_2:

__end_hUGE_Routine_2:
ret

__hUGE_Routine_3:

__end_hUGE_Routine_3:
ret

__hUGE_Routine_4:

__end_hUGE_Routine_4:
ret

__hUGE_Routine_5:

__end_hUGE_Routine_5:
ret

__hUGE_Routine_6:

__end_hUGE_Routine_6:
ret

__hUGE_Routine_7:

__end_hUGE_Routine_7:
ret

__hUGE_Routine_8:

__end_hUGE_Routine_8:
ret

__hUGE_Routine_9:

__end_hUGE_Routine_9:
ret

__hUGE_Routine_10:

__end_hUGE_Routine_10:
ret

__hUGE_Routine_11:

__end_hUGE_Routine_11:
ret

__hUGE_Routine_12:

__end_hUGE_Routine_12:
ret

__hUGE_Routine_13:

__end_hUGE_Routine_13:
ret

__hUGE_Routine_14:

__end_hUGE_Routine_14:
ret

__hUGE_Routine_15:

__end_hUGE_Routine_15:
ret

waves:
wave0: db 0,17,34,51,68,85,102,119,136,153,170,187,204,221,238,255
wave1: db 32,2,34,51,68,85,102,119,136,153,170,187,204,221,238,255
wave2: db 48,1,34,51,68,85,102,119,136,153,170,187,204,221,238,255
wave3: db 80,1,34,51,68,85,102,119,136,153,170,187,204,221,238,255
wave4: db 112,0,34,51,68,85,102,119,136,153,170,187,204,221,238,255
wave5: db 147,0,18,35,52,68,85,102,119,136,153,170,187,204,221,238
wave6: db 182,50,17,34,52,69,86,103,120,137,154,171,188,205,222,239
wave7: db 201,118,84,67,52,68,69,86,102,119,136,153,170,187,204,221
wave8: db 238,238,238,238,238,238,238,0,0,0,0,0,0,0,0,0

